
  <svg width="835.5" height="104.25" viewBox="0 0 4456 556" fill="none" xmlns="http://www.w3.org/2000/svg" xmlns:xlink="http://www.w3.org/1999/xlink" version="1.1">
    
        <g transform="translate(0, 0)">
          <svg xmlns="http://www.w3.org/2000/svg" width="256" height="256" fill="none" viewBox="0 0 256 256"><rect width="256" height="256" fill="#E14E1D" rx="60"/><path fill="#fff" d="M48 38L56.6098 134.593H167.32L163.605 176.023L127.959 185.661L92.38 176.037L90.0012 149.435H57.9389L62.5236 200.716L127.951 218.888L193.461 200.716L202.244 102.655H85.8241L82.901 69.9448H205.041H205.139L208 38H48Z"/><path fill="#EBEBEB" d="M128 38H48L56.6098 134.593H128V102.655H85.8241L82.901 69.9448H128V38Z"/><path fill="#EBEBEB" d="M128 185.647L127.959 185.661L92.38 176.037L90.0012 149.435H57.9388L62.5236 200.716L127.951 218.888L128 218.874V185.647Z"/></svg>
        </g>
         
        <g transform="translate(300, 0)">
          <svg width="256" height="256" viewBox="0 0 256 256" fill="none" xmlns="http://www.w3.org/2000/svg">
<rect width="256" height="256" rx="60" fill="#0277BD"/>
<path d="M53.7527 102.651L56.6155 134.593H128.096V102.651H53.7527Z" fill="#EBEBEB"/>
<path d="M128.095 38H127.985H48L50.9036 69.9423H128.095V38Z" fill="#EBEBEB"/>
<path d="M128.095 218.841V185.608L127.955 185.645L92.3813 176.04L90.1072 150.564H72.821H58.0425L62.5175 200.718L127.948 218.882L128.095 218.841Z" fill="#EBEBEB"/>
<path d="M167.318 134.593L163.61 176.019L127.985 185.635V218.866L193.468 200.718L193.948 195.321L201.454 111.229L202.233 102.651L208 38H127.985V69.9423H172.994L170.088 102.651H127.985V134.593H167.318Z" fill="white"/>
</svg>

        </g>
         
        <g transform="translate(600, 0)">
          <svg width="256" height="256" viewBox="0 0 256 256" fill="none" xmlns="http://www.w3.org/2000/svg">
<rect width="256" height="256" rx="60" fill="#F0DB4F"/>
<path d="M67.3117 213.932L86.9027 202.076C90.6821 208.777 94.1202 214.447 102.367 214.447C110.272 214.447 115.256 211.355 115.256 199.327V117.529H139.314V199.667C139.314 224.584 124.708 235.926 103.398 235.926C84.1533 235.926 72.9819 225.959 67.3113 213.93" fill="#323330"/>
<path d="M152.381 211.354L171.969 200.013C177.126 208.434 183.828 214.62 195.684 214.62C205.653 214.62 212.009 209.636 212.009 202.762C212.009 194.514 205.479 191.592 194.481 186.782L188.468 184.203C171.111 176.815 159.597 167.535 159.597 147.945C159.597 129.901 173.345 116.153 194.826 116.153C210.12 116.153 221.118 121.481 229.022 135.4L210.291 147.429C206.166 140.04 201.7 137.119 194.826 137.119C187.78 137.119 183.312 141.587 183.312 147.429C183.312 154.646 187.78 157.568 198.09 162.037L204.104 164.614C224.553 173.379 236.067 182.313 236.067 202.418C236.067 224.072 219.055 235.928 196.2 235.928C173.861 235.928 159.426 225.274 152.381 211.354" fill="#323330"/>
</svg>

        </g>
         
        <g transform="translate(900, 0)">
          <svg xmlns="http://www.w3.org/2000/svg" width="256" height="256" fill="none" viewBox="0 0 256 256"><rect width="256" height="256" fill="#242938" rx="60"/><path fill="#fff" d="M49.158 100.246H77.566C85.904 100.316 91.946 102.72 95.692 107.454C99.438 112.188 100.674 118.654 99.402 126.852C98.908 130.598 97.812 134.272 96.116 137.876C94.49 141.48 92.23 144.73 89.332 147.628C85.798 151.302 82.018 153.634 77.99 154.624C73.962 155.614 69.792 156.108 65.482 156.108H52.762L48.734 176.248H34L49.158 100.246V100.246ZM61.56 112.33L55.2 144.13C55.624 144.2 56.048 144.236 56.472 144.236C56.966 144.236 57.462 144.236 57.956 144.236C64.74 144.306 70.394 143.636 74.916 142.222C79.438 140.738 82.478 135.58 84.032 126.746C85.304 119.326 84.032 115.05 80.216 113.92C76.47 112.79 71.772 112.26 66.118 112.33C65.27 112.4 64.458 112.436 63.68 112.436C62.974 112.436 62.232 112.436 61.454 112.436L61.56 112.33"/><path fill="#fff" d="M116.186 80H130.814L126.68 100.246H139.824C147.032 100.388 152.402 101.872 155.936 104.698C159.54 107.524 160.6 112.896 159.116 120.81L152.014 156.108H137.174L143.958 122.4C144.664 118.866 144.452 116.358 143.322 114.874C142.192 113.39 139.754 112.648 136.008 112.648L124.242 112.542L115.55 156.108H100.922L116.186 80Z"/><path fill="#fff" d="M174.824 100.246H203.232C211.57 100.316 217.612 102.72 221.358 107.454C225.104 112.188 226.34 118.654 225.068 126.852C224.574 130.598 223.478 134.272 221.782 137.876C220.156 141.48 217.896 144.73 214.998 147.628C211.464 151.302 207.684 153.634 203.656 154.624C199.628 155.614 195.458 156.108 191.148 156.108H178.428L174.4 176.248H159.666L174.824 100.246V100.246ZM187.226 112.33L180.866 144.13C181.29 144.2 181.714 144.236 182.138 144.236C182.632 144.236 183.128 144.236 183.622 144.236C190.406 144.306 196.06 143.636 200.582 142.222C205.104 140.738 208.144 135.58 209.698 126.746C210.97 119.326 209.698 115.05 205.882 113.92C202.136 112.79 197.438 112.26 191.784 112.33C190.936 112.4 190.124 112.436 189.346 112.436C188.64 112.436 187.898 112.436 187.12 112.436L187.226 112.33"/></svg>
        </g>
         
        <g transform="translate(1200, 0)">
          <svg xmlns="http://www.w3.org/2000/svg" width="256" height="256" fill="none" viewBox="0 0 256 256"><rect width="256" height="256" fill="#242938" rx="60"/><g clip-path="url(#clip0_7_147)"><path fill="#fff" fill-rule="evenodd" d="M203.801 178.21C194.011 177.938 186.416 178.941 180.051 181.619C178.218 182.355 175.277 182.355 175.035 184.662C176.015 185.63 176.133 187.214 176.992 188.556C178.459 190.991 181.033 194.271 183.357 195.973L191.191 201.571C195.965 204.488 201.351 206.193 206.002 209.113C208.696 210.817 211.388 213.007 214.082 214.834C215.454 215.807 216.285 217.392 218 217.997V217.629C217.144 216.538 216.897 214.957 216.044 213.735L212.367 210.209C208.82 205.465 204.41 201.325 199.636 197.922C195.718 195.245 187.152 191.596 185.56 187.097L185.319 186.824C188.008 186.552 191.191 185.605 193.764 184.875C197.929 183.784 201.721 184.024 206.002 182.93L211.882 181.226V180.135C209.678 177.946 208.087 175.025 205.763 172.959C199.521 167.606 192.661 162.373 185.56 157.994C181.766 155.562 176.868 153.977 172.829 151.913C171.356 151.182 168.911 150.817 168.055 149.601C165.846 146.929 164.625 143.397 163.034 140.232L152.997 119.064C150.794 114.319 149.444 109.574 146.755 105.195C134.144 84.5124 120.431 71.9828 99.375 59.6932C94.8477 57.1382 89.4616 56.0393 83.7353 54.7032L74.5546 54.2124C72.5928 53.3616 70.6364 51.0493 68.9216 49.9531C61.9441 45.5739 43.9475 36.0847 38.8029 48.5897C35.4966 56.4974 43.7006 64.2824 46.4855 68.299C48.5708 71.0966 51.2597 74.2597 52.7332 77.4228C53.5563 79.4897 53.8307 81.682 54.6895 83.8717C56.6458 89.2243 58.4842 95.1878 61.0551 100.178C62.427 102.733 63.8675 105.413 65.5824 107.723C66.5619 109.086 68.2768 109.67 68.6417 111.859C66.9268 114.294 66.8089 117.94 65.8293 120.986C61.42 134.734 63.1349 151.766 69.377 161.888C71.3389 164.928 75.9622 171.622 82.2345 169.065C87.744 166.875 86.5148 159.941 88.1062 153.857C88.4766 152.399 88.2297 151.425 88.9623 150.449V150.722L93.9834 160.819C97.7781 166.78 104.391 172.986 109.897 177.125C112.833 179.315 115.16 183.089 118.831 184.425V184.057H118.59C117.854 182.966 116.751 182.475 115.772 181.624C113.569 179.435 111.121 176.757 109.406 174.325C104.267 167.513 99.7399 159.968 95.6983 152.183C93.7365 148.412 92.0216 144.275 90.4357 140.504C89.6949 139.043 89.6949 136.85 88.4739 136.125C86.6355 138.797 83.9466 141.115 82.5939 144.398C80.2672 149.628 80.0257 156.077 79.1697 162.769C78.6758 162.891 78.8953 162.769 78.6758 163.041C74.7631 162.071 73.4132 158.051 71.9453 154.648C68.274 146.01 67.6594 132.141 70.8422 122.164C71.6983 119.609 75.375 111.579 73.9071 109.146C73.1662 106.834 70.7242 105.498 69.3743 103.671C67.7829 101.359 66.0735 98.4409 64.9705 95.8859C62.0346 89.0689 60.5667 81.5293 57.3812 74.7151C55.9077 71.552 53.3396 68.2662 51.257 65.3486C48.9303 62.0628 46.3648 59.7505 44.5265 55.8593C43.9146 54.4959 43.0585 52.3309 44.0381 50.8693C44.2795 49.8959 44.7734 49.5059 45.7475 49.2878C47.3389 47.9244 51.8716 49.6532 53.463 50.3785C57.9903 52.2054 61.7849 53.907 65.5796 56.4592C67.2945 57.6754 69.1329 59.9877 71.3361 60.5985H73.9098C77.8279 61.4493 82.2317 60.8712 85.9002 61.9619C92.3893 64.0343 98.2637 67.0719 103.532 70.3604C119.567 80.4577 132.792 94.8143 141.725 111.971C143.193 114.769 143.805 117.324 145.155 120.244C147.729 126.208 150.912 132.289 153.477 138.132C156.051 143.85 158.498 149.694 162.17 154.438C164.008 156.993 171.35 158.329 174.654 159.668C177.104 160.759 180.896 161.741 183.105 163.077C187.264 165.632 191.427 168.552 195.342 171.35C197.298 172.806 203.423 175.849 203.787 178.276L203.801 178.21ZM78.9584 72.4873C77.267 72.4724 75.5809 72.6769 73.9427 73.0954V73.3681H74.1842C75.1637 75.315 76.8786 76.6538 78.1023 78.3581L80.9202 84.1989L81.1616 83.9262C82.8765 82.71 83.7353 80.7631 83.7353 77.8454C83 76.9947 82.8793 76.1412 82.2674 75.2904C81.5321 74.0743 79.9407 73.4635 78.9584 72.4928V72.4873Z" clip-rule="evenodd"/></g><defs><clipPath id="clip0_7_147"><rect width="180" height="180" fill="#fff" transform="translate(38 38)"/></clipPath></defs></svg>
        </g>
         
        <g transform="translate(1500, 0)">
          <svg width="256" height="256" viewBox="0 0 256 256" fill="none" xmlns="http://www.w3.org/2000/svg">
<g clip-path="url(#clip0_307_145)">
<path d="M60 0C26.8629 0 0 26.8629 0 60V196C0 229.137 26.8629 256 60 256H168.46C166.681 250.757 165.288 242.454 164.504 232.977C163.829 224.825 163.605 215.806 163.979 207.107C163.878 205.821 163.817 204.985 163.817 204.985C163.817 204.985 161.943 192.375 159.246 182.016C158.052 177.418 156.693 173.26 155.266 170.85C154.531 169.607 155.346 164.499 157.397 156.934C158.597 159.005 163.66 167.866 164.677 170.722C165.822 173.95 166.062 174.875 166.062 174.875C166.062 174.875 163.285 160.603 158.729 152.275C159.728 148.908 160.921 145.187 162.271 141.209C163.849 143.976 167.436 150.33 168.732 153.341C168.852 153.62 168.96 153.882 169.039 154.098C169.223 154.62 169.378 155.063 169.517 155.469C170.248 157.587 170.426 158.261 170.426 158.261C170.426 158.261 170.155 156.875 169.651 154.737C169.438 153.834 169.173 152.772 168.878 151.641C167.73 147.232 165.986 141.46 163.753 136.937C169.485 107.143 187.934 68.1305 207.81 47.0689C209.523 45.2554 211.244 43.5577 212.968 42.0275C224.587 31.7274 236.36 28.2483 246.083 36.9095C253.117 43.1773 255.995 51.8346 256 61.8004V60C256 26.8629 229.137 0 196 0H60Z" fill="#D9D9D9"/>
<path d="M60 0C26.8629 0 0 26.8629 0 60V196C0 229.137 26.8629 256 60 256H168.46C166.681 250.757 165.288 242.454 164.504 232.977C163.829 224.825 163.605 215.806 163.979 207.107C163.878 205.821 163.817 204.985 163.817 204.985C163.817 204.985 161.943 192.375 159.246 182.016C158.052 177.418 156.693 173.26 155.266 170.85C154.531 169.607 155.346 164.499 157.397 156.934C158.597 159.005 163.66 167.866 164.677 170.722C165.822 173.95 166.062 174.875 166.062 174.875C166.062 174.875 163.285 160.603 158.729 152.275C159.728 148.908 160.921 145.187 162.271 141.209C163.849 143.976 167.436 150.33 168.732 153.341C168.852 153.62 168.96 153.882 169.039 154.098C169.223 154.62 169.378 155.063 169.517 155.469C170.248 157.587 170.426 158.261 170.426 158.261C170.426 158.261 170.155 156.875 169.651 154.737C169.438 153.834 169.173 152.772 168.878 151.641C167.73 147.232 165.986 141.46 163.753 136.937C169.485 107.143 187.934 68.1305 207.81 47.0689C209.523 45.2554 211.244 43.5577 212.968 42.0275C224.587 31.7274 236.36 28.2483 246.083 36.9095C253.117 43.1773 255.995 51.8346 256 61.8004V60C256 26.8629 229.137 0 196 0H60Z" fill="url(#paint0_linear_307_145)"/>
<path d="M246.083 36.9095C236.36 28.2483 224.587 31.7274 212.968 42.0275C211.244 43.5577 209.523 45.2554 207.81 47.0689C187.934 68.1305 169.485 107.143 163.753 136.937C165.986 141.46 167.73 147.232 168.878 151.641C169.173 152.772 169.438 153.834 169.651 154.737C170.155 156.875 170.426 158.261 170.426 158.261C170.426 158.261 170.248 157.587 169.517 155.469C169.378 155.063 169.223 154.62 169.039 154.098C168.96 153.882 168.852 153.62 168.732 153.341C167.436 150.33 163.849 143.976 162.271 141.209C160.921 145.187 159.728 148.908 158.729 152.275C163.285 160.603 166.062 174.875 166.062 174.875C166.062 174.875 165.822 173.95 164.677 170.722C163.66 167.866 158.597 159.005 157.397 156.934C155.346 164.499 154.531 169.607 155.266 170.85C156.693 173.26 158.052 177.418 159.246 182.016C161.943 192.375 163.817 204.985 163.817 204.985C163.817 204.985 163.878 205.821 163.979 207.107C163.605 215.806 163.829 224.825 164.504 232.977C165.397 243.768 167.079 253.039 169.223 258L170.678 257.207C167.53 247.433 166.251 234.623 166.811 219.849C167.658 197.268 172.861 170.036 182.473 141.653C198.713 98.8063 221.245 64.4287 241.867 48.0113C223.071 64.9667 197.632 119.85 190.017 140.174C181.491 162.933 175.448 184.291 171.807 204.753C178.09 185.57 198.405 177.324 198.405 177.324C198.405 177.324 208.369 165.05 220.013 147.514C213.038 149.103 201.585 151.823 197.748 153.433C192.09 155.804 190.565 156.613 190.565 156.613C190.565 156.613 208.895 145.463 224.621 140.415C246.249 106.39 269.811 58.0531 246.083 36.9095" fill="#003B57"/>
<path d="M28.5202 49C25.4571 49 22.9663 49.8947 21.0568 51.6832C19.1473 53.4733 18.1786 55.8197 18.1786 58.6947C18.1786 60.1847 18.4192 61.5432 18.8932 62.788C19.3672 64.0354 20.1048 65.1909 21.0965 66.235C22.0882 67.2801 24.0732 68.6997 27.0315 70.5046C30.6616 72.6912 33.0372 74.4658 34.1773 75.8514C35.3183 77.2358 35.8844 78.6867 35.8844 80.1993C35.8844 82.2246 35.2087 83.8412 33.8201 85.0565C32.429 86.2722 30.5687 86.8779 28.2622 86.8779C25.8294 86.8779 23.7103 86.0317 21.8905 84.3514C20.0707 82.6686 19.1521 80.4429 19.1314 77.6532H18V87.7788H19.1314C19.4768 86.82 19.9548 86.3295 20.5804 86.3295C20.8814 86.3295 21.5864 86.5343 22.6845 86.917C25.3562 87.855 27.55 88.3076 29.2745 88.3076C32.2464 88.3076 34.7832 87.2806 36.8967 85.1935C39.0071 83.1074 40.0727 80.591 40.0727 77.6532C40.0727 75.3752 39.3692 73.3485 37.9885 71.5818C36.6077 69.813 33.9225 67.7556 29.9097 65.3929C26.4567 63.3459 24.2153 61.6787 23.1807 60.379C22.1446 59.0812 21.6126 57.6456 21.6126 56.0703C21.6126 54.3664 22.247 52.9977 23.4983 51.977C24.7496 50.9554 26.3892 50.4493 28.4408 50.4493C30.7497 50.4493 32.6743 51.1254 34.1972 52.4862C35.7185 53.8493 36.5982 55.7383 36.857 58.1659H37.9885V49.3917H36.9364C36.8078 49.839 36.6887 50.125 36.5791 50.2535C36.4727 50.3812 36.2679 50.4493 35.9638 50.4493C35.5978 50.4493 34.9451 50.2973 34.0186 49.9988C32.0336 49.3392 30.2035 49 28.5202 49ZM65.4999 49C61.7674 49 58.3787 49.868 55.3171 51.6048C52.2507 53.3385 49.8235 55.7459 48.0323 58.8122C46.2419 61.8782 45.3526 65.1346 45.3526 68.6048C45.3526 73.2671 46.8993 77.4206 50.0173 81.0611C53.1368 84.6993 56.8749 86.9663 61.2124 87.8376C62.2041 88.3474 63.6229 89.6635 65.48 91.7938C67.573 94.1978 69.3435 95.9318 70.7997 96.9643C72.2543 97.9974 73.8248 98.7545 75.4842 99.2558C77.1452 99.7549 78.9412 100 80.8832 100C83.235 100 85.3406 99.5967 87.1954 98.7661L86.7785 97.7477C85.7019 98.1309 84.5538 98.3157 83.3446 98.3157C81.7034 98.3157 80.0448 97.7817 78.3822 96.7097C76.722 95.635 74.6457 93.5846 72.1693 90.5599C71.0053 89.1106 70.2018 88.1962 69.7477 87.8376C74.4933 86.9232 78.3957 84.6538 81.439 81.0219C84.4816 77.3916 86.0044 73.2484 86.0044 68.6048C86.0044 63.0913 84.0163 58.4576 80.0694 54.6797C76.1194 50.9015 71.2618 49 65.4999 49ZM88.5848 49L88.6444 50.1947C91.1295 50.1947 92.5214 50.917 92.8326 52.3687C92.9485 52.8881 93.0017 53.8471 93.0113 55.2281L92.9914 81.6486C92.9708 83.6219 92.6858 84.8818 92.1379 85.4286C91.5893 85.9715 90.6619 86.3115 89.3193 86.447L89.2598 87.6417H114.032L114.667 81.6486H113.536C113.213 83.2812 112.472 84.4508 111.293 85.1152C110.11 85.7845 108.02 86.1141 105 86.1141H102.658C99.9412 86.1141 98.3691 85.1449 97.9539 83.1959C97.8681 82.8103 97.8387 82.3968 97.8348 81.9424L97.934 55.2281C97.9334 53.258 98.1857 51.9378 98.7081 51.2915C99.2361 50.6475 100.188 50.2871 101.566 50.1947L101.507 49H88.5849H88.5848ZM65.8969 50.4493C70.1065 50.4493 73.5437 52.0852 76.1988 55.3848C78.853 58.6855 80.1687 63.2094 80.1687 68.9378C80.1687 74.366 78.834 78.7123 76.1591 81.9816C73.4841 85.2498 69.9239 86.8779 65.4999 86.8779C61.2497 86.8779 57.803 85.199 55.1583 81.8249C52.5159 78.4507 51.2082 74.0701 51.2082 68.6832C51.2082 63.1476 52.5318 58.7164 55.198 55.4044C57.8626 52.0959 61.4307 50.4493 65.8969 50.4493ZM122.865 56.129C122.261 56.129 121.8 56.3304 121.456 56.7362C121.103 57.1404 120.995 57.63 121.118 58.2247C121.237 58.8015 121.567 59.307 122.091 59.7327C122.612 60.158 123.174 60.379 123.778 60.379C124.362 60.379 124.808 60.158 125.128 59.7327C125.448 59.307 125.545 58.8015 125.426 58.2247C125.302 57.63 124.984 57.1404 124.493 56.7362C123.996 56.3304 123.449 56.129 122.865 56.129ZM139.201 60.1832C138.174 64.08 135.949 66.1888 132.532 66.5288L132.571 67.6452H136.561L136.482 80.8456C136.488 83.1025 136.558 84.605 136.72 85.3698C137.113 87.2007 138.325 88.1313 140.352 88.1313C143.286 88.1313 146.364 86.368 149.582 82.8433L148.61 82.0207C146.286 84.3419 144.231 85.5069 142.437 85.5069C141.334 85.5069 140.65 84.8811 140.392 83.6463C140.321 83.3464 140.293 82.996 140.293 82.5887L140.333 67.6452H146.426L146.367 65.8629H140.352V60.1832H139.201H139.201ZM162.762 65.1578C159.354 65.1578 156.581 66.7905 154.426 70.0346C152.281 73.2842 151.617 76.8845 152.461 80.8456C152.957 83.1658 153.945 84.9641 155.458 86.2316C156.968 87.4985 158.884 88.1313 161.174 88.1313C163.307 88.1313 166.277 87.5985 167.526 86.5253C168.779 85.4528 169.934 83.7152 171 81.3353L170.146 80.4539C168.446 83.5413 165.013 85.0956 162.425 85.0956C158.866 85.0956 156.687 83.1692 155.875 79.3376C155.769 78.8485 155.69 78.323 155.636 77.7707C159.87 77.1094 163.078 75.9383 165.244 74.2454C167.407 72.5516 169.58 70.7562 169.174 68.8594C168.932 67.7324 168.339 66.8462 167.427 66.1763C166.503 65.5067 164.103 65.1578 162.762 65.1578ZM125.505 65.2949L118.161 66.9597V68.2523L120.701 67.9389C121.932 67.9389 122.656 68.4888 122.885 69.5841C122.962 69.9507 123.01 70.4654 123.024 71.1118L122.944 82.9608C122.924 84.6005 122.739 85.5537 122.369 85.8399C121.995 86.1266 121.009 86.2707 119.411 86.2707L119.371 87.3871H131.023L131.003 86.2707C129.384 86.2707 128.335 86.1447 127.867 85.8986C127.407 85.6541 127.091 85.2091 126.954 84.5276C126.848 84.0365 126.802 83.1903 126.795 82.0207L126.835 65.2949H125.505H125.505ZM160.897 67.4885C161.606 67.4885 162.291 67.7587 162.981 68.2915C163.661 68.8224 164.076 69.4128 164.211 70.0541C164.876 73.2043 162.045 75.3822 155.676 76.5956C155.494 74.2986 155.898 72.2134 156.927 70.3283C157.948 68.4451 159.278 67.4885 160.897 67.4885Z" fill="#003B57"/>
</g>
<defs>
<linearGradient id="paint0_linear_307_145" x1="147.614" y1="5.2389" x2="147.614" y2="241.763" gradientUnits="userSpaceOnUse">
<stop stop-color="#97D9F6"/>
<stop offset="0.920245" stop-color="#0F80CC"/>
<stop offset="1" stop-color="#0F80CC"/>
</linearGradient>
<clipPath id="clip0_307_145">
<rect width="256" height="256" rx="60" fill="white"/>
</clipPath>
</defs>
</svg>

        </g>
         
        <g transform="translate(1800, 0)">
          <svg xmlns="http://www.w3.org/2000/svg" width="256" height="256" fill="none" viewBox="0 0 256 256"><rect width="256" height="256" fill="#242938" rx="60"/><path fill="#00D8FF" d="M128.001 146.951C138.305 146.951 146.657 138.598 146.657 128.295C146.657 117.992 138.305 109.639 128.001 109.639C117.698 109.639 109.345 117.992 109.345 128.295C109.345 138.598 117.698 146.951 128.001 146.951Z"/><path fill-rule="evenodd" stroke="#00D8FF" stroke-width="8.911" d="M128.002 90.3633C153.05 90.3633 176.319 93.9575 193.864 99.9976C215.003 107.275 228 118.306 228 128.295C228 138.704 214.226 150.423 191.525 157.944C174.363 163.63 151.779 166.598 128.002 166.598C103.624 166.598 80.5389 163.812 63.1834 157.881C41.2255 150.376 28 138.506 28 128.295C28 118.387 40.4096 107.441 61.2515 100.175C78.8617 94.0353 102.705 90.3633 127.998 90.3633H128.002Z" clip-rule="evenodd"/><path fill-rule="evenodd" stroke="#00D8FF" stroke-width="8.911" d="M94.9811 109.438C107.495 87.7402 122.232 69.3783 136.23 57.1971C153.094 42.5206 169.144 36.7728 177.796 41.7623C186.813 46.9623 190.084 64.7496 185.259 88.1712C181.614 105.879 172.9 126.925 161.021 147.523C148.842 168.641 134.897 187.247 121.09 199.315C103.619 214.587 86.7284 220.114 77.8833 215.013C69.3003 210.067 66.0181 193.846 70.1356 172.161C73.6145 153.838 82.3451 131.349 94.977 109.438L94.9811 109.438Z" clip-rule="evenodd"/><path fill-rule="evenodd" stroke="#00D8FF" stroke-width="8.911" d="M95.0123 147.578C82.4633 125.904 73.9194 103.962 70.3531 85.7517C66.0602 63.8109 69.0954 47.0355 77.7401 42.0315C86.7485 36.8163 103.792 42.866 121.674 58.7437C135.194 70.7479 149.077 88.8052 160.99 109.383C173.204 130.481 182.358 151.856 185.919 169.844C190.425 192.608 186.778 210.001 177.941 215.116C169.367 220.08 153.676 214.825 136.945 200.427C122.809 188.263 107.685 169.468 95.0123 147.578Z" clip-rule="evenodd"/></svg>
        </g>
         
        <g transform="translate(2100, 0)">
          <svg width="256" height="256" viewBox="0 0 256 256" fill="none" xmlns="http://www.w3.org/2000/svg">
<rect width="256" height="256" rx="60" fill="#242938"/>
<path d="M227.088 57.6016L133.256 225.389C131.318 228.854 126.341 228.874 124.375 225.427L28.6823 57.6177C26.54 53.861 29.7524 49.3105 34.0096 50.0715L127.942 66.8613C128.541 66.9684 129.155 66.9674 129.754 66.8582L221.722 50.0955C225.965 49.3222 229.192 53.8374 227.088 57.6016Z" fill="url(#paint0_linear_307_179)"/>
<path d="M172.687 28.0492L103.249 41.6554C102.107 41.879 101.262 42.8462 101.194 44.007L96.9221 116.148C96.8216 117.847 98.3821 119.166 100.04 118.783L119.373 114.322C121.182 113.905 122.816 115.498 122.445 117.317L116.701 145.443C116.314 147.336 118.092 148.954 119.94 148.393L131.881 144.765C133.732 144.203 135.511 145.826 135.119 147.721L125.991 191.9C125.42 194.664 129.096 196.171 130.629 193.801L131.653 192.219L188.235 79.2992C189.183 77.4085 187.549 75.2526 185.472 75.6534L165.573 79.494C163.703 79.8545 162.112 78.113 162.639 76.2834L175.628 31.2582C176.156 29.4255 174.559 27.6825 172.687 28.0492Z" fill="url(#paint1_linear_307_179)"/>
<defs>
<linearGradient id="paint0_linear_307_179" x1="26.3459" y1="44.075" x2="143.127" y2="202.673" gradientUnits="userSpaceOnUse">
<stop stop-color="#41D1FF"/>
<stop offset="1" stop-color="#BD34FE"/>
</linearGradient>
<linearGradient id="paint1_linear_307_179" x1="122.551" y1="31.7433" x2="143.676" y2="176.66" gradientUnits="userSpaceOnUse">
<stop stop-color="#FFEA83"/>
<stop offset="0.0833333" stop-color="#FFDD35"/>
<stop offset="1" stop-color="#FFA800"/>
</linearGradient>
</defs>
</svg>

        </g>
         
        <g transform="translate(2400, 0)">
          <svg xmlns="http://www.w3.org/2000/svg" width="256" height="256" fill="none" viewBox="0 0 256 256"><rect width="256" height="256" fill="#242938" rx="60"/><path fill="#81CD39" d="M119.878 31.1164C124.797 28.3008 131.203 28.2883 136.117 31.1164C160.839 45.0855 185.569 59.0332 210.287 73.0108C214.937 75.6296 218.046 80.8038 217.999 86.1608V170.206C218.034 175.785 214.617 181.083 209.712 183.642C185.071 197.535 160.442 211.444 135.805 225.337C130.786 228.207 124.251 227.986 119.387 224.88C112 220.598 104.6 216.336 97.2121 212.058C95.7022 211.158 94.0004 210.442 92.9345 208.978C93.8766 207.708 95.5618 207.55 96.9309 206.995C100.014 206.014 102.847 204.44 105.679 202.913C106.396 202.423 107.27 202.611 107.957 203.049C114.274 206.671 120.536 210.399 126.874 213.986C128.226 214.767 129.595 213.73 130.751 213.086C154.931 199.419 179.141 185.805 203.318 172.134C204.214 171.703 204.709 170.752 204.636 169.771C204.653 142.046 204.64 114.317 204.645 86.5918C204.747 85.4785 204.103 84.455 203.096 83.999C178.541 70.1702 153.997 56.3205 129.446 42.4882C128.575 41.8893 127.426 41.8878 126.554 42.4837C102.002 56.3205 77.4638 70.1832 52.9124 84.011C51.9092 84.4675 51.236 85.4745 51.3554 86.5918C51.3596 114.317 51.3554 142.046 51.3554 169.775C51.2682 170.756 51.801 171.687 52.6906 172.109C59.2422 175.824 65.8024 179.513 72.3582 183.216C76.0516 185.203 80.5863 186.385 84.6555 184.862C88.2463 183.574 90.7633 179.909 90.6948 176.097C90.7288 148.534 90.6778 120.967 90.7203 93.4078C90.6309 92.1841 91.7912 91.1731 92.981 91.2885C96.1292 91.267 99.281 91.2461 102.429 91.297C103.743 91.267 104.647 92.5847 104.485 93.8174C104.472 121.555 104.519 149.293 104.464 177.03C104.472 184.423 101.435 192.467 94.5973 196.084C86.1737 200.447 75.7619 199.522 67.4399 195.338C60.2355 191.742 53.3603 187.498 46.2838 183.646C41.3661 181.101 37.966 175.782 38.0006 170.207V86.1608C37.949 80.6929 41.1825 75.4248 45.9764 72.8445C70.6133 58.9408 95.2461 45.0261 119.878 31.1164Z"/><path fill="#81CD39" d="M141.372 89.3351C152.117 88.6433 163.62 88.9255 173.289 94.2185C180.776 98.2754 184.926 106.789 185.058 115.106C184.849 116.227 183.676 116.846 182.605 116.769C179.488 116.765 176.369 116.812 173.252 116.748C171.929 116.799 171.161 115.58 170.995 114.411C170.099 110.431 167.928 106.49 164.183 104.57C158.433 101.692 151.767 101.837 145.497 101.897C140.92 102.139 135.998 102.536 132.12 105.227C129.143 107.266 128.239 111.382 129.301 114.697C130.303 117.077 133.05 117.845 135.299 118.553C148.248 121.94 161.97 121.602 174.672 126.059C179.931 127.876 185.075 131.409 186.875 136.915C189.23 144.295 188.198 153.115 182.947 159.039C178.689 163.914 172.488 166.568 166.303 168.009C158.075 169.844 149.536 169.891 141.18 169.076C133.323 168.18 125.146 166.116 119.081 160.763C113.894 156.259 111.361 149.241 111.612 142.469C111.672 141.325 112.811 140.527 113.907 140.621C117.046 140.596 120.186 140.587 123.325 140.626C124.58 140.536 125.509 141.62 125.574 142.802C126.152 146.593 127.577 150.573 130.884 152.82C137.264 156.937 145.271 156.655 152.577 156.77C158.63 156.502 165.425 156.421 170.364 152.42C172.97 150.138 173.742 146.32 173.038 143.036C172.275 140.263 169.374 138.971 166.883 138.126C154.1 134.083 140.224 135.55 127.565 130.977C122.425 129.161 117.455 125.727 115.481 120.447C112.726 112.974 113.988 103.73 119.789 98.0061C125.445 92.312 133.609 90.1192 141.372 89.3346V89.3351"/></svg>
        </g>
         
        <g transform="translate(2700, 0)">
          <svg width="256" height="256" viewBox="0 0 256 256" fill="none" xmlns="http://www.w3.org/2000/svg">
<g clip-path="url(#clip0_33_588)">
<path d="M196 0H60C26.8629 0 0 26.8629 0 60V196C0 229.137 26.8629 256 60 256H196C229.137 256 256 229.137 256 196V60C256 26.8629 229.137 0 196 0Z" fill="#242938"/>
<g clip-path="url(#clip1_33_588)">
<path d="M23 88H233V156.571H128V168H81.3333V156.571H23V88ZM34.6667 145.143H58V110.857H69.6667V145.143H81.3333V99.4286H34.6667V145.143ZM93 99.4286V156.571H116.333V145.143H139.667V99.4286H93ZM116.333 110.857H128V133.714H116.333V110.857ZM151.333 99.4286V145.143H174.667V110.857H186.333V145.143H198V110.857H209.667V145.143H221.333V99.4286H151.333Z" fill="#CB3837"/>
<path d="M34.6667 145.143H58V110.857H69.6667V145.143H81.3334V99.4286H34.6667V145.143Z" fill="white"/>
<path d="M93 99.4286V156.571H116.333V145.143H139.667V99.4286H93ZM128 133.714H116.333V110.857H128V133.714Z" fill="white"/>
<path d="M151.333 99.4286V145.143H174.667V110.857H186.333V145.143H198V110.857H209.667V145.143H221.333V99.4286H151.333Z" fill="white"/>
</g>
</g>
<defs>
<clipPath id="clip0_33_588">
<rect width="256" height="256" fill="white"/>
</clipPath>
<clipPath id="clip1_33_588">
<rect width="210" height="80" fill="white" transform="translate(23 88)"/>
</clipPath>
</defs>
</svg>

        </g>
         
        <g transform="translate(3000, 0)">
          <svg width="256" height="256" viewBox="0 0 256 256" fill="none" xmlns="http://www.w3.org/2000/svg">
<rect width="256" height="256" rx="60" fill="#FF6C37"/>
<path d="M169.061 88.6123L118.521 139.153L104.268 124.901C153.971 75.1986 158.882 79.5101 169.061 88.6123Z" fill="#EEEEEE"/>
<path d="M118.521 140.35C118.161 140.35 117.922 140.231 117.682 139.991L103.31 125.739C102.831 125.26 102.831 124.542 103.31 124.063C153.851 73.5211 159.12 78.3118 169.78 87.8932C170.02 88.1328 170.139 88.3724 170.139 88.7317C170.139 89.0911 170.02 89.3306 169.78 89.5694L119.239 139.991C119.12 140.231 118.76 140.35 118.521 140.35ZM105.945 124.901L118.521 137.476L167.265 88.7317C158.403 80.8266 152.414 78.4316 105.945 124.901Z" fill="#FF6C37"/>
<path d="M133.012 153.645L119.239 139.872L169.78 89.3315C183.314 102.984 163.073 125.141 133.012 153.645Z" fill="#EEEEEE"/>
<path d="M133.012 154.843C132.652 154.843 132.414 154.723 132.174 154.483L118.401 140.71C118.161 140.471 118.161 140.231 118.161 139.872C118.161 139.512 118.281 139.273 118.521 139.033L169.061 88.4927C169.54 88.0135 170.259 88.0135 170.738 88.4927C173.852 91.3668 175.529 95.4387 175.409 99.6305C175.17 112.924 160.079 129.811 133.97 154.483C133.611 154.723 133.251 154.843 133.012 154.843ZM120.916 139.872C128.58 147.656 131.815 150.771 133.012 151.968C153.133 132.806 172.654 113.164 172.774 99.6305C172.894 96.5168 171.697 93.4031 169.66 91.0074L120.916 139.872Z" fill="#FF6C37"/>
<path d="M104.508 125.26L114.688 135.44C114.927 135.68 114.927 135.919 114.688 136.159C114.568 136.279 114.568 136.279 114.449 136.279L93.3693 140.83C92.292 140.95 91.3337 140.231 91.0942 139.153C90.9744 138.554 91.214 137.956 91.5733 137.596L103.789 125.38C104.029 125.14 104.388 125.02 104.508 125.26Z" fill="#EEEEEE"/>
<path d="M93.01 142.028C91.214 142.028 89.8963 140.59 89.8963 138.793C89.8963 137.956 90.2557 137.117 90.8546 136.518L103.07 124.302C103.789 123.703 104.748 123.703 105.466 124.302L115.646 134.482C116.364 135.081 116.364 136.159 115.646 136.877C115.406 137.117 115.167 137.237 114.807 137.357L93.7287 141.908C93.4891 141.908 93.2495 142.028 93.01 142.028ZM104.149 126.577L92.4118 138.314C92.1723 138.554 92.0525 138.913 92.292 139.272C92.4118 139.632 92.7704 139.752 93.1298 139.632L112.891 135.32L104.149 126.577Z" fill="#FF6C37"/>
<path d="M195.769 60.5877C188.104 53.1625 175.768 53.4021 168.342 61.1867C160.917 68.9712 161.157 81.1871 168.941 88.6131C175.289 94.7207 184.871 95.7988 192.416 91.2476L178.762 77.5943L195.769 60.5877Z" fill="#EEEEEE"/>
<path d="M182.355 95.1996C170.978 95.1996 161.756 85.9776 161.756 74.6002C161.756 63.222 170.978 54 182.355 54C187.625 54 192.775 56.0364 196.607 59.749C196.847 59.9886 196.967 60.2281 196.967 60.5875C196.967 60.9469 196.847 61.1864 196.607 61.426L180.439 77.5941L193.134 90.2891C193.614 90.7683 193.614 91.487 193.134 91.9661C193.015 92.0859 193.015 92.0859 192.895 92.2057C189.781 94.1215 186.068 95.1996 182.355 95.1996ZM182.355 56.5155C172.295 56.5155 164.151 64.6595 164.271 74.72C164.271 84.7805 172.414 92.9244 182.475 92.8047C185.23 92.8047 187.984 92.2057 190.499 90.888L177.924 78.4326C177.684 78.193 177.565 77.9534 177.565 77.5941C177.565 77.2347 177.684 76.9951 177.924 76.7556L193.973 60.7073C190.739 57.953 186.667 56.5155 182.355 56.5155Z" fill="#FF6C37"/>
<path d="M196.128 60.9471L195.889 60.7075L178.762 77.5943L192.296 91.1279C193.614 90.2894 194.93 89.3319 196.009 88.2538C203.673 80.708 203.673 68.4921 196.128 60.9471Z" fill="#EEEEEE"/>
<path d="M192.416 92.4448C192.056 92.4448 191.817 92.325 191.577 92.0855L177.924 78.4321C177.684 78.1925 177.565 77.953 177.565 77.5936C177.565 77.2342 177.684 76.9947 177.924 76.7551L194.93 59.7485C195.41 59.2694 196.128 59.2694 196.607 59.7485L196.967 59.9881C204.991 68.0122 204.991 80.9469 197.087 89.0916C195.889 90.2887 194.571 91.3667 193.134 92.2053C192.775 92.325 192.536 92.4448 192.416 92.4448ZM180.439 77.5936L192.536 89.6897C193.494 89.0916 194.452 88.2531 195.17 87.5344C201.997 80.7073 202.356 69.5695 195.769 62.3838L180.439 77.5936Z" fill="#FF6C37"/>
<path d="M171.098 90.7674C168.223 87.8933 163.552 87.8933 160.678 90.7674L115.526 135.919L123.072 143.464L170.858 101.547C173.972 98.9113 174.211 94.2404 171.577 91.1267C171.337 91.007 171.217 90.8872 171.098 90.7674Z" fill="#EEEEEE"/>
<path d="M122.952 144.662C122.593 144.662 122.353 144.542 122.113 144.303L114.568 136.758C114.089 136.279 114.089 135.56 114.568 135.081L159.719 89.929C163.073 86.5758 168.462 86.5758 171.816 89.929C175.17 93.283 175.17 98.6719 171.816 102.026C171.697 102.146 171.577 102.265 171.457 102.385L123.67 144.303C123.551 144.542 123.311 144.662 122.952 144.662ZM117.203 135.919L123.072 141.788L170.02 100.588C172.654 98.4323 172.894 94.4801 170.738 91.8456C168.582 89.2111 164.63 88.9715 161.995 91.1269C161.876 91.2467 161.756 91.3664 161.516 91.4862L117.203 135.919Z" fill="#FF6C37"/>
<path d="M80.9139 187.3C80.4347 187.539 80.1951 188.018 80.3149 188.497L82.3513 197.121C82.8305 198.318 82.1117 199.756 80.7941 200.115C79.8358 200.474 78.7585 200.115 78.1596 199.397L64.9854 186.342L107.981 143.346L122.832 143.585L132.892 153.646C130.497 155.682 116.005 169.694 80.9139 187.3Z" fill="#EEEEEE"/>
<path d="M79.9556 201.311C78.9981 201.311 78.0398 200.952 77.4408 200.234L64.3864 187.179C64.1469 186.94 64.0271 186.7 64.0271 186.341C64.0271 185.982 64.1469 185.742 64.3864 185.502L107.382 142.507C107.622 142.267 107.981 142.147 108.221 142.147L123.072 142.387C123.431 142.387 123.67 142.507 123.909 142.746L133.97 152.806C134.21 153.046 134.329 153.405 134.329 153.764C134.329 154.124 134.21 154.363 133.85 154.603L133.012 155.322C120.317 166.459 103.07 177.598 81.6326 188.257L83.669 196.76C84.0275 198.317 83.3096 199.994 81.8722 200.832C81.1534 201.191 80.5545 201.311 79.9556 201.311ZM66.7814 186.341L79.1178 198.557C79.4764 199.156 80.1951 199.395 80.7941 199.036C81.393 198.677 81.6326 197.958 81.2732 197.359L79.2376 188.736C78.9981 187.658 79.4764 186.7 80.4347 186.221C101.633 175.562 118.76 164.544 131.335 153.645L122.473 144.782L108.7 144.542L66.7814 186.341Z" fill="#FF6C37"/>
<path d="M54.8051 196.641L65.1052 186.341L80.4347 201.671L56.0029 199.995C54.9249 199.875 54.2061 198.917 54.3259 197.838C54.3259 197.359 54.4457 196.88 54.8051 196.641Z" fill="#EEEEEE"/>
<path d="M80.4347 202.749L55.8831 201.072C54.0863 200.952 52.8884 199.396 53.0082 197.599C53.128 196.88 53.3676 196.162 53.9665 195.683L64.2666 185.383C64.7458 184.904 65.4645 184.904 65.9429 185.383L81.2732 200.713C81.6326 201.072 81.7524 201.551 81.5128 202.031C81.2732 202.51 80.9139 202.749 80.4347 202.749ZM65.1051 188.018L55.6435 197.479C55.2842 197.719 55.2842 198.318 55.6435 198.557C55.7633 198.677 55.8831 198.797 56.1227 198.797L77.321 200.234L65.1051 188.018Z" fill="#FF6C37"/>
<path d="M103.789 148.855C103.07 148.855 102.591 148.256 102.591 147.657C102.591 147.298 102.711 147.059 102.951 146.819L114.568 135.202C115.047 134.722 115.766 134.722 116.245 135.202L123.79 142.747C124.149 143.106 124.269 143.465 124.149 143.945C124.029 144.304 123.67 144.663 123.192 144.783L104.029 148.855C103.909 148.855 103.789 148.855 103.789 148.855ZM115.406 137.717L107.502 145.622L120.436 142.866L115.406 137.717Z" fill="#FF6C37"/>
<path d="M122.832 143.584L109.658 146.459C108.7 146.699 107.741 146.1 107.502 145.142C107.382 144.543 107.502 143.944 107.981 143.465L115.286 136.159L122.832 143.584Z" fill="#EEEEEE"/>
<path d="M109.418 147.657C107.741 147.657 106.424 146.34 106.424 144.663C106.424 143.825 106.783 143.106 107.262 142.508L114.568 135.202C115.047 134.722 115.766 134.722 116.245 135.202L123.79 142.747C124.149 143.106 124.269 143.465 124.149 143.945C124.029 144.304 123.67 144.663 123.192 144.783L110.017 147.657C109.778 147.657 109.538 147.657 109.418 147.657ZM115.406 137.717L108.939 144.184C108.7 144.424 108.7 144.663 108.819 144.903C108.939 145.142 109.179 145.262 109.538 145.262L120.556 142.866L115.406 137.717Z" fill="#FF6C37"/>
<path d="M196.248 72.4434C196.009 71.7254 195.17 71.3661 194.451 71.6057C193.733 71.8444 193.374 72.6829 193.614 73.4017C193.614 73.5215 193.733 73.6412 193.733 73.761C194.451 75.1985 194.213 76.9945 193.254 78.3121C192.775 78.9111 192.895 79.7496 193.374 80.2287C193.973 80.7071 194.811 80.5881 195.29 79.9892C197.087 77.7132 197.446 74.8391 196.248 72.4434Z" fill="#FF6C37"/>
</svg>

        </g>
         
        <g transform="translate(3300, 0)">
          <svg xmlns="http://www.w3.org/2000/svg" width="256" height="256" fill="none" viewBox="0 0 256 256"><rect width="256" height="256" fill="url(#paint0_linear_158_100)" rx="60"/><g filter="url(#filter0_d_158_100)"><path fill="url(#paint1_linear_158_100)" d="M131.97 196.157C161.646 196.157 179.529 181.626 179.529 157.66C179.529 139.543 166.77 126.428 147.823 124.351V123.597C161.743 121.332 172.666 108.405 172.666 93.9689C172.666 73.3992 156.427 60 131.68 60H76V196.157H131.97ZM97.6533 77.2674H126.46C142.12 77.2674 151.013 84.2497 151.013 96.8935C151.013 110.387 140.67 117.935 121.917 117.935H97.6533V77.2674V77.2674ZM97.6533 178.89V134.071H126.266C146.76 134.071 157.393 141.619 157.393 156.339C157.393 171.058 147.05 178.89 127.523 178.89H97.6533V178.89Z"/><path stroke="#fff" stroke-width="2" d="M131.97 196.157C161.646 196.157 179.529 181.626 179.529 157.66C179.529 139.543 166.77 126.428 147.823 124.351V123.597C161.743 121.332 172.666 108.405 172.666 93.9689C172.666 73.3992 156.427 60 131.68 60H76V196.157H131.97ZM97.6533 77.2674H126.46C142.12 77.2674 151.013 84.2497 151.013 96.8935C151.013 110.387 140.67 117.935 121.917 117.935H97.6533V77.2674V77.2674ZM97.6533 178.89V134.071H126.266C146.76 134.071 157.393 141.619 157.393 156.339C157.393 171.058 147.05 178.89 127.523 178.89H97.6533V178.89Z"/></g><defs><filter id="filter0_d_158_100" width="137.529" height="170.157" x="59" y="47" color-interpolation-filters="sRGB" filterUnits="userSpaceOnUse"><feFlood flood-opacity="0" result="BackgroundImageFix"/><feColorMatrix in="SourceAlpha" result="hardAlpha" type="matrix" values="0 0 0 0 0 0 0 0 0 0 0 0 0 0 0 0 0 0 127 0"/><feOffset dy="4"/><feGaussianBlur stdDeviation="8"/><feColorMatrix type="matrix" values="0 0 0 0 0 0 0 0 0 0 0 0 0 0 0 0 0 0 0.15 0"/><feBlend in2="BackgroundImageFix" mode="normal" result="effect1_dropShadow_158_100"/><feBlend in="SourceGraphic" in2="effect1_dropShadow_158_100" mode="normal" result="shape"/></filter><linearGradient id="paint0_linear_158_100" x1="0" x2="256" y1="0" y2="256" gradientUnits="userSpaceOnUse"><stop stop-color="#9013FE"/><stop offset="1" stop-color="#6B11F4"/></linearGradient><linearGradient id="paint1_linear_158_100" x1="85.793" x2="148.541" y1="68.962" y2="175.084" gradientUnits="userSpaceOnUse"><stop stop-color="#fff"/><stop offset="1" stop-color="#F1E5FC"/></linearGradient></defs></svg>
        </g>
         
        <g transform="translate(3600, 0)">
          <svg xmlns="http://www.w3.org/2000/svg" width="256" height="256" fill="none" viewBox="0 0 256 256"><rect width="256" height="256" fill="#CD6799" rx="60"/><g clip-path="url(#clip0_137_201)"><path fill="#fff" d="M200.107 139.163C193.133 139.199 187.073 140.879 181.998 143.361C180.136 139.674 178.274 136.388 177.945 133.978C177.58 131.167 177.142 129.451 177.58 126.092C178.018 122.733 179.99 117.951 179.953 117.586C179.917 117.22 179.515 115.505 175.499 115.468C171.483 115.432 168.015 116.235 167.613 117.294C167.211 118.352 166.445 120.762 165.934 123.245C165.24 126.896 157.901 139.93 153.703 146.757C152.352 144.092 151.184 141.755 150.928 139.893C150.563 137.082 150.125 135.366 150.563 132.007C151.001 128.648 152.973 123.865 152.936 123.5C152.9 123.135 152.498 121.419 148.482 121.383C144.466 121.346 140.997 122.149 140.596 123.208C140.194 124.267 139.756 126.75 138.916 129.159C138.077 131.569 128.329 153.329 125.773 158.951C124.459 161.835 123.327 164.135 122.524 165.705C122.524 165.705 122.487 165.815 122.378 165.997C121.684 167.348 121.282 168.078 121.282 168.078C121.282 168.078 121.282 168.078 121.282 168.115C120.735 169.101 120.15 170.013 119.858 170.013C119.639 170.013 119.238 167.385 119.931 163.807C121.392 156.249 124.86 144.493 124.824 144.092C124.824 143.873 125.481 141.828 122.56 140.769C119.712 139.71 118.69 141.463 118.434 141.463C118.179 141.463 117.996 142.084 117.996 142.084C117.996 142.084 121.173 128.867 111.936 128.867C106.167 128.867 98.2081 135.183 94.2651 140.879C91.7824 142.23 86.4885 145.114 80.8295 148.217C78.6755 149.422 76.4484 150.627 74.3673 151.759C74.2213 151.613 74.0753 151.43 73.9292 151.284C62.7573 139.345 42.0928 130.912 42.969 114.884C43.2976 109.042 45.3056 93.7083 82.655 75.0883C113.396 59.9368 137.858 64.1354 142.093 73.4454C148.153 86.7349 128.986 111.415 97.2224 114.993C85.1012 116.344 78.7485 111.671 77.1421 109.919C75.4626 108.093 75.2071 107.984 74.5864 108.349C73.5641 108.896 74.2213 110.539 74.5864 111.488C75.5356 113.971 79.4422 118.352 86.0504 120.506C91.892 122.405 106.094 123.464 123.29 116.819C142.531 109.371 157.573 88.6699 153.155 71.3278C148.738 53.7302 119.53 47.9251 91.892 57.7462C75.4626 63.5878 57.6459 72.7882 44.831 84.7634C29.6065 99.0022 27.1968 111.379 28.1826 116.563C31.724 134.964 57.0983 146.939 67.2479 155.811C66.7368 156.103 66.2622 156.359 65.8606 156.578C60.7857 159.097 41.4356 169.21 36.6163 179.908C31.1399 192.029 37.4926 200.718 41.6912 201.886C54.7251 205.501 68.1242 199.002 75.3166 188.268C82.509 177.534 81.6328 163.588 78.3104 157.199C78.2739 157.126 78.2374 157.053 78.1643 156.98C79.4787 156.213 80.8295 155.41 82.1439 154.643C84.7361 153.11 87.2917 151.686 89.4823 150.517C88.241 153.913 87.3283 157.965 86.8901 163.807C86.3425 170.671 89.1537 179.579 92.8412 183.084C94.4842 184.617 96.4192 184.654 97.6605 184.654C101.969 184.654 103.904 181.076 106.058 176.841C108.686 171.656 111.06 165.632 111.06 165.632C111.06 165.632 108.102 181.916 116.134 181.916C119.055 181.916 122.012 178.119 123.327 176.184C123.327 176.22 123.327 176.22 123.327 176.22C123.327 176.22 123.4 176.111 123.546 175.855C123.838 175.38 124.02 175.088 124.02 175.088C124.02 175.088 124.02 175.052 124.02 175.015C125.189 172.971 127.817 168.334 131.724 160.63C136.762 150.7 141.618 138.287 141.618 138.287C141.618 138.287 142.056 141.317 143.553 146.355C144.429 149.313 146.255 152.562 147.715 155.702C146.547 157.345 145.817 158.257 145.817 158.257C145.817 158.257 145.817 158.257 145.853 158.294C144.904 159.535 143.882 160.886 142.75 162.2C138.77 166.947 134.024 172.387 133.367 173.957C132.6 175.819 132.783 177.169 134.243 178.265C135.302 179.068 137.2 179.177 139.135 179.068C142.713 178.812 145.233 177.936 146.474 177.388C148.409 176.695 150.673 175.636 152.79 174.066C156.697 171.182 159.07 167.056 158.851 161.616C158.741 158.622 157.755 155.629 156.551 152.817C156.916 152.306 157.244 151.795 157.609 151.284C163.78 142.266 168.562 132.372 168.562 132.372C168.562 132.372 169 135.402 170.497 140.441C171.227 142.996 172.724 145.771 174.039 148.473C168.234 153.183 164.656 158.659 163.378 162.237C161.078 168.882 162.867 171.875 166.262 172.569C167.796 172.898 169.986 172.168 171.593 171.474C173.637 170.817 176.047 169.685 178.347 168.005C182.253 165.121 186.014 161.105 185.795 155.665C185.685 153.183 185.028 150.736 184.115 148.363C189.044 146.319 195.397 145.187 203.502 146.136C220.881 148.181 224.313 159.024 223.655 163.588C222.998 168.151 219.347 170.634 218.142 171.401C216.938 172.168 216.536 172.423 216.646 172.971C216.792 173.774 217.376 173.737 218.398 173.591C219.822 173.336 227.525 169.904 227.854 161.507C228.402 150.773 218.179 139.053 200.107 139.163ZM66.0431 184.362C60.2746 190.641 52.2425 193.015 48.7741 191.007C45.0501 188.852 46.5105 179.579 53.5933 172.934C57.9015 168.882 63.4509 165.121 67.1384 162.821C67.9781 162.31 69.2195 161.58 70.7164 160.667C70.9719 160.521 71.118 160.448 71.118 160.448C71.41 160.265 71.7021 160.083 71.9942 159.9C74.5864 169.393 72.1037 177.754 66.0431 184.362ZM108.029 155.811C106.021 160.704 101.823 173.226 99.2669 172.533C97.0763 171.948 95.7255 162.456 98.8288 153.073C100.399 148.363 103.721 142.741 105.656 140.55C108.796 137.045 112.264 135.877 113.104 137.301C114.163 139.163 109.271 152.744 108.029 155.811ZM142.677 172.387C141.837 172.825 141.034 173.117 140.669 172.898C140.413 172.752 141.034 172.168 141.034 172.168C141.034 172.168 145.379 167.494 147.095 165.377C148.08 164.135 149.249 162.675 150.49 161.032C150.49 161.178 150.49 161.361 150.49 161.507C150.49 167.093 145.087 170.853 142.677 172.387ZM169.402 166.289C168.781 165.851 168.891 164.391 170.972 159.827C171.775 158.038 173.674 155.045 176.923 152.16C177.288 153.329 177.544 154.46 177.507 155.519C177.471 162.566 172.432 165.194 169.402 166.289Z"/></g><defs><clipPath id="clip0_137_201"><rect width="200" height="149.909" fill="#fff" transform="translate(28 53)"/></clipPath></defs></svg>
        </g>
         
        <g transform="translate(3900, 0)">
          <svg width="256" height="256" viewBox="0 0 256 256" fill="none" xmlns="http://www.w3.org/2000/svg">
<g clip-path="url(#clip0_33_863)">
<path d="M196 0H60C26.8629 0 0 26.8629 0 60V196C0 229.137 26.8629 256 60 256H196C229.137 256 256 229.137 256 196V60C256 26.8629 229.137 0 196 0Z" fill="#242938"/>
<g clip-path="url(#clip1_33_863)">
<path d="M215.667 153.57C215.667 162.506 208.099 169.817 198.85 169.817H57.5065C48.2576 169.817 40.6904 162.506 40.6904 153.57V101.831C40.6904 92.8955 48.2576 85.584 57.5065 85.584H198.85C208.099 85.584 215.667 92.8955 215.667 101.831V153.57Z" fill="url(#paint0_linear_33_863)"/>
<mask id="mask0_33_863" style="mask-type:luminance" maskUnits="userSpaceOnUse" x="28" y="85" width="200" height="85">
<path d="M28.0671 85.3833H227.98V170H28.0671" fill="white"/>
</mask>
<g mask="url(#mask0_33_863)">
<path fill-rule="evenodd" clip-rule="evenodd" d="M219.443 116.241C219.443 109.907 220.428 106.172 220.428 99.3511C220.428 88.7941 216.487 85.3833 207.787 85.3833H201.384V92.854H203.354C207.787 92.854 208.772 94.316 208.772 99.6757C208.772 104.71 208.279 109.745 208.279 115.592C208.279 123.063 210.742 125.986 215.666 127.123V127.611C210.742 128.747 208.279 131.671 208.279 139.142C208.279 144.988 208.772 149.699 208.772 155.059C208.772 160.58 207.623 162.042 203.354 162.042V162.204H201.384V170H207.787C216.487 170 220.428 166.589 220.428 156.033C220.428 149.049 219.443 145.476 219.443 139.142C219.443 135.731 221.577 132.158 227.98 131.833V123.388C221.577 123.225 219.443 119.652 219.443 116.241ZM146.716 126.149C141.626 124.2 137.029 123.063 137.029 119.814C137.029 117.379 138.999 115.917 142.611 115.917C146.223 115.917 149.506 117.379 153.118 119.978L159.685 111.369C155.58 108.284 149.999 105.035 142.447 105.035C131.284 105.035 123.731 111.369 123.731 120.302C123.731 128.26 130.791 132.32 136.701 134.594C141.79 136.543 146.716 138.168 146.716 141.415C146.716 143.852 144.745 145.476 140.313 145.476C136.208 145.476 132.105 143.852 127.672 140.441L121.269 149.861C126.194 153.921 133.746 156.682 139.984 156.682C153.118 156.682 160.177 149.861 160.177 140.928C160.177 131.996 153.118 128.26 146.716 126.149ZM186.444 126.149C181.519 124.2 176.923 123.063 176.923 119.814C176.923 117.379 178.893 115.917 182.504 115.917C186.116 115.917 189.4 117.379 193.012 119.978L199.578 111.369C195.474 108.284 189.892 105.035 182.34 105.035C171.176 105.035 163.625 111.369 163.625 120.302C163.625 128.26 170.684 132.32 176.594 134.594C181.683 136.543 186.608 138.168 186.608 141.415C186.608 143.852 184.638 145.476 180.206 145.476C176.102 145.476 171.997 143.852 167.565 140.441L160.998 149.861C165.923 153.921 173.475 156.682 179.714 156.682C192.847 156.682 199.906 149.861 199.906 140.928C199.906 131.996 192.847 128.26 186.444 126.149ZM88.9274 125.336C89.9123 118.84 93.8522 115.755 98.4489 115.755C104.359 115.755 106.658 119.814 106.658 125.336H88.9274ZM119.135 128.26C119.299 115.105 112.075 104.873 98.2849 104.873C86.3006 104.873 74.8092 114.78 75.1372 130.371C75.1372 146.45 85.8085 155.87 99.9267 155.87C105.837 155.87 112.404 153.759 117.493 150.348L112.568 141.741C108.956 143.852 105.508 144.826 101.897 144.826C95.33 144.826 90.2404 141.741 88.9274 134.269H118.642C118.806 133.132 119.135 130.859 119.135 128.26Z" fill="#FAF9F8"/>
</g>
<mask id="mask1_33_863" style="mask-type:luminance" maskUnits="userSpaceOnUse" x="28" y="85" width="200" height="85">
<path d="M28.0671 85.3833H227.98V170H28.0671" fill="white"/>
</mask>
<g mask="url(#mask1_33_863)">
<path fill-rule="evenodd" clip-rule="evenodd" d="M74.3168 144.502C73.1678 144.502 71.69 143.527 71.69 140.441V85.3833H48.3775C39.5129 85.3833 35.5723 88.7941 35.5723 99.3511C35.5723 106.334 36.5573 110.233 36.5573 116.241C36.5573 119.652 34.4234 123.225 28.0208 123.55V131.996C34.4234 132.158 36.5573 135.731 36.5573 139.142C36.5573 145.151 35.5723 148.724 35.5723 155.708C35.5723 166.265 39.5129 169.675 48.2135 169.675H54.6161V162.204H52.6462C48.5424 162.204 47.2286 160.58 47.2286 155.221C47.2286 149.861 47.7214 145.314 47.7214 139.304C47.7214 131.833 45.2586 128.909 40.3331 127.773V127.286C45.2586 126.149 47.7214 123.225 47.7214 115.755C47.7214 109.907 47.2286 105.198 47.2286 99.8379C47.2286 94.4783 48.3775 93.0171 52.6462 93.0171H57.0789V139.629C57.0789 149.536 60.5266 156.033 70.541 156.033C73.6599 156.033 76.1227 155.545 77.9286 154.896L76.2867 144.339C75.3017 144.502 74.8097 144.502 74.3168 144.502Z" fill="#FAF9F8"/>
</g>
</g>
</g>
<defs>
<linearGradient id="paint0_linear_33_863" x1="8789.49" y1="85.584" x2="8789.49" y2="8508.85" gradientUnits="userSpaceOnUse">
<stop stop-color="#2E4F82"/>
<stop offset="1" stop-color="#182E4D"/>
</linearGradient>
<clipPath id="clip0_33_863">
<rect width="256" height="256" fill="white"/>
</clipPath>
<clipPath id="clip1_33_863">
<rect width="200" height="85" fill="white" transform="translate(28 85)"/>
</clipPath>
</defs>
</svg>

        </g>
         
        <g transform="translate(4200, 0)">
          <svg width="256" height="256" viewBox="0 0 256 256" fill="none" xmlns="http://www.w3.org/2000/svg">
<rect width="256" height="256" rx="60" fill="url(#paint0_linear_163_1214)"/>
<path d="M11.487 129.079L61.791 149.463V163.732L2.24152 136.141V127.769L11.487 129.079ZM61.791 112.336L11.5598 133.01L2.24152 134.03V125.585L61.791 98.067V112.336Z" fill="white"/>
<path d="M241.371 131.991L189.611 111.826V97.9214L251.781 125.439V133.957L241.371 131.991ZM189.611 149.754L241.517 129.152L251.781 127.623V136.068L189.611 163.659V149.754Z" fill="white"/>
<path fill-rule="evenodd" clip-rule="evenodd" d="M176.077 61.0989C175.789 65.6652 173.732 70.4334 174.305 74.8724C177.898 81.2257 185.806 82.2394 192.33 82.6749C196.85 83.4825 196.793 80.4898 196.49 77.1276C196.508 71.7532 196.526 66.3788 196.545 61.0044C189.722 61.0289 182.897 60.9367 176.077 61.0989ZM122.276 73.8698C111.168 75.7546 99.9082 81.0627 90.6673 87.453C83.2291 93.2417 97.0523 98.852 102.067 99.7898C112.157 99.9127 121.106 93.1074 127.734 86.0428C129.898 83.0722 132.601 78.5258 129.882 75.0835C127.806 73.2832 124.787 73.72 122.276 73.8698ZM145.913 90.0242C136.78 91.7632 128.09 95.5279 120.401 100.769C114.764 102.539 110.118 108.728 117.103 111.829C124.438 117.674 132.939 116.242 139.694 112.296C145.88 108.619 152.562 104.082 155.424 97.1602C158.127 89.5773 151.153 89.2957 145.913 90.0242ZM171.822 119.407C170.121 126.511 162.967 129.741 159.161 135.37C156.049 139.476 157.49 144.313 161.033 147.545C162.758 151.122 165.782 153.121 169.025 150.014C177.377 144.336 179.687 133.276 179.34 123.693C179.957 119.735 175.416 123.313 171.822 119.407V119.407ZM140.039 132.75C128.948 134.648 117.855 140.052 108.61 146.432C101.433 152.213 114.95 157.611 120.006 158.467C130.283 158.482 139.45 151.859 145.948 144.337C148.208 141.35 150.947 135.549 146.472 133.174C144.471 132.326 142.148 132.575 140.039 132.75V132.75Z" fill="#B956A6"/>
<path fill-rule="evenodd" clip-rule="evenodd" d="M90.6673 87.453C82.1375 90.8661 73.9085 95.0103 65.7834 99.3498C64.273 104.965 65.484 111.918 65.0925 118.075C65.063 143.391 65.0775 168.708 65.0726 194.024C71.3463 194.024 77.6201 194.024 83.8938 194.024C87.6933 190.446 92.4538 187.827 96.5811 184.578C112.475 173.179 128.364 161.736 144.237 150.369C145.405 150.894 144.657 143.498 142.095 148.635C136.024 154.348 127.966 159.047 119.437 158.588C114.597 156.996 106.795 154.295 106.746 148.364C110.153 144.353 100.46 150.464 97.8083 151.339C89.1857 155.479 80.7672 160.102 72.1272 164.165C74.2042 161.935 78.0889 159.856 80.842 157.644C100.515 143.522 120.183 129.345 139.903 115.234C143.696 112.571 147.36 109.666 151.27 107.177C151.627 108.556 152.297 100.584 149.389 105.492C143.461 111.368 135.465 115.742 127.032 115.802C122.289 114.362 112.187 110.919 114.436 104.795C115.533 102.646 104.248 109.376 109.234 105.581C114.541 101.703 119.89 97.8938 125.238 94.0562C127.939 93.8528 127.364 83.8205 123.694 90.2919C117.529 95.7088 109.429 100.665 100.938 99.4904C96.1682 98.1173 90.4448 95.4576 88.7114 90.4697C88.137 89.2716 91.9228 87.4054 90.6673 87.453ZM126.006 93.6462C125.533 94.9992 126.863 93.1517 126.006 93.6462V93.6462Z" fill="#FCCC44"/>
<path fill-rule="evenodd" clip-rule="evenodd" d="M179.899 80.7493C177.236 93.4665 174.325 106.775 171.822 119.407C179.014 128.471 179.711 113.681 180.969 109.499C183.002 100.758 185.41 94.1577 185.665 85.1075C186.205 82.0195 182.575 80.1486 179.899 80.7493ZM188.15 90.7215C187.925 92.0255 188.478 90.9666 188.15 90.7215V90.7215ZM179.76 119.236C180.106 119.981 180.106 118.49 179.76 119.236V119.236Z" fill="#62777F"/>
<path fill-rule="evenodd" clip-rule="evenodd" d="M184.616 82.1892C186.86 94.7924 179.427 110.102 176.996 121.984C182.516 117.922 186.781 99.492 187.871 92.2782C188.152 91.453 188.498 89.3766 188.573 89.3022C188.92 87.5506 192.153 84.5838 192.33 82.675C194.212 81.3466 183.08 81.1326 184.616 82.1892ZM180.039 119.236C179.692 119.981 179.692 118.49 180.039 119.236V119.236Z" fill="#4E5E67"/>
<path fill-rule="evenodd" clip-rule="evenodd" d="M90.8537 87.6628C87.742 90.7786 88.9097 90.0176 91.2264 87.4265L90.8537 87.6628ZM124.514 89.206C120.909 94.6231 107.909 99.1529 106.272 99.5038C114.092 98.0393 121.381 93.1749 126.51 87.4757C125.695 87.8387 125.211 88.6925 124.514 89.206ZM88.7155 90.965C90.6587 95.6369 97.7239 98.7415 101.157 99.4655C96.4698 97.9558 90.9525 95.2772 88.7155 90.965V90.965ZM125.726 93.6667C124.745 94.825 121.251 96.5579 119.409 98.2563C115.458 101.171 111.371 103.879 107.465 106.866C109.952 106.759 117.24 101.315 113.504 106.839C116.67 112.288 123.563 116.077 129.848 115.731C138.148 114.428 145.802 109.839 151.304 103.457C144.625 110.066 135.795 116.286 126.024 115.429C121.295 114.337 108.373 107.662 117.017 102.983C120.065 100.476 125.32 99.1626 125.915 94.7571C125.79 94.2071 126.815 93.6703 125.726 93.6668V93.6667ZM102.067 99.7899C105.212 100.201 105.212 99.3792 102.067 99.7899V99.7899ZM151.07 107.315C138.591 116.009 126.293 125.043 113.922 133.893C99.9022 143.927 85.9423 153.998 71.9258 164.024C77.1957 162.247 82.4758 158.777 87.7113 156.38C94.9202 152.566 102.523 149.553 109.269 144.92C122.607 137.068 136.713 129.587 146.972 117.574C149.211 114.948 151.456 110.721 151.556 107.878C151.233 107.969 151.478 106.741 151.07 107.315V107.315ZM108.61 146.432C106.365 148.969 105.453 150.782 107.783 147.556C107.742 147.93 109.674 145.553 108.61 146.432ZM142.766 147.646C136.852 153.882 128.105 158.38 119.898 158.683C129.386 158.752 137.946 153.12 144.374 146.476C143.952 145.966 143.097 147.664 142.766 147.646ZM144.573 149.606C124.704 164.07 104.149 179.073 84.2128 193.485C87.3539 194.47 94.1918 194.932 97.3122 190.911C103.953 186.329 111.418 182.96 118.08 178.316C127.727 172.056 138.056 165.214 143.535 154.693C143.796 153.282 145.735 150.744 144.573 149.606V149.606ZM106.76 150.524C107.682 154.416 119.208 158.883 117.958 158.028C113.708 156.538 109.492 154.216 106.76 150.524Z" fill="#DC9624"/>
<defs>
<linearGradient id="paint0_linear_163_1214" x1="0" y1="256" x2="256" y2="0" gradientUnits="userSpaceOnUse">
<stop stop-color="#DB7093"/>
<stop offset="1" stop-color="#F3B661"/>
</linearGradient>
</defs>
</svg>

        </g>
         
        <g transform="translate(0, 300)">
          <svg width="256" height="256" viewBox="0 0 256 256" fill="none" xmlns="http://www.w3.org/2000/svg">
<rect width="256" height="256" rx="60" fill="url(#paint0_linear_7_245)"/>
<path d="M79.2383 68.7408C69.2524 83.3576 70.4962 102.373 78.1042 117.886L78.6637 118.991L79.0417 119.691C79.1117 119.827 79.1929 119.961 79.2648 120.093C79.3971 120.339 79.5294 120.575 79.6428 120.817L80.3705 122.089L80.7864 122.789L81.6313 124.135L82.0093 124.702C82.3874 125.307 82.8145 125.908 83.2342 126.501C83.2436 126.516 83.2568 126.533 83.2682 126.548C83.3343 126.643 83.4081 126.737 83.4572 126.832C83.8201 127.342 84.2133 127.845 84.5913 128.344L85.0109 128.888L86.0411 130.178L86.4343 130.658C86.9028 131.223 87.3817 131.781 87.8708 132.329L87.901 132.359C87.9199 132.383 87.9388 132.397 87.9577 132.421C88.4316 132.956 88.9181 133.479 89.417 133.99L89.8857 134.47L91.052 135.635L91.5283 136.096C92.0524 136.598 92.5849 137.091 93.1255 137.576L93.4279 137.84L94.8777 139.088L95.4788 139.576L96.6885 140.521L97.335 141.022L99.1836 142.373C99.2308 142.405 99.2724 142.439 99.3197 142.471C99.7544 142.774 100.195 143.067 100.637 143.36L101.208 143.747L103.272 145.033L103.843 145.36L105.393 146.244C105.676 146.399 105.966 146.547 106.249 146.694L107.357 147.261L107.612 147.386L108.066 147.609L109.823 148.437L110.196 148.626C110.874 148.927 111.557 149.216 112.245 149.493L112.744 149.694L114.677 150.423L114.919 150.51C115.633 150.762 116.352 151.002 117.074 151.229L117.594 151.387C118.35 151.614 119.059 151.885 119.819 152.03C168.109 161.02 182.14 122.494 182.14 122.494C170.359 138.126 149.447 142.246 129.635 137.659C128.884 137.47 128.156 137.249 127.423 137.028L126.871 136.839C126.157 136.616 125.446 136.379 124.743 136.134L124.45 136.026C123.821 135.799 123.195 135.563 122.573 135.317L122.044 135.105C121.363 134.832 120.687 134.546 120.017 134.247L119.613 134.066L117.904 133.253L117.413 133.011C116.969 132.788 116.528 132.559 116.089 132.325L115.207 131.852C114.673 131.56 114.145 131.258 113.623 130.947L113.088 130.644C112.392 130.229 111.704 129.794 111.024 129.359C110.835 129.236 110.653 129.106 110.466 128.981L108.997 127.987L108.525 127.647L107.136 126.626L106.519 126.153L105.266 125.155L104.707 124.702L103.147 123.379C103.094 123.331 103.034 123.284 102.958 123.233C102.403 122.736 101.856 122.226 101.318 121.713L100.856 121.26L99.6769 120.084L99.2157 119.611C98.7244 119.101 98.2424 118.582 97.7697 118.054C97.747 118.027 97.7206 118.003 97.6979 117.978C97.1983 117.421 96.7093 116.853 96.2311 116.277L95.8474 115.812L94.7889 114.483L94.4014 113.992L93.1822 112.338C82.1813 97.0558 78.2497 75.9802 87.0202 58.6699L79.2383 68.7408ZM110.237 56.4244C103.017 67.0094 103.408 81.1745 109.041 92.3682C109.983 94.2477 111.05 96.062 112.235 97.7987C113.317 99.377 114.517 101.258 115.953 102.524C116.473 103.091 117.017 103.658 117.573 104.237C117.713 104.382 117.857 104.52 118 104.666C118.54 105.201 119.092 105.724 119.656 106.233C119.679 106.252 119.7 106.274 119.724 106.293C120.36 106.858 121.009 107.406 121.673 107.938L122.112 108.285C122.772 108.805 123.447 109.306 124.134 109.79C124.152 109.805 124.171 109.82 124.191 109.834C124.493 110.047 124.805 110.249 125.113 110.453C125.261 110.552 125.4 110.656 125.548 110.748C126.041 111.071 126.541 111.383 127.047 111.684L127.259 111.809L128.582 112.565C128.737 112.654 128.895 112.731 129.054 112.814L129.999 113.302C130.047 113.327 130.094 113.345 130.139 113.368C130.776 113.689 131.417 113.992 132.073 114.285C132.213 114.347 132.356 114.404 132.5 114.464C133.024 114.691 133.553 114.911 134.088 115.12L134.768 115.374C135.251 115.553 135.736 115.725 136.224 115.89L136.881 116.103C137.575 116.324 138.261 116.6 138.985 116.723C176.269 123.014 184.879 93.7764 184.879 93.7764C177.12 105.155 162.095 110.588 146.058 106.35C145.349 106.161 144.645 105.953 143.947 105.726C143.733 105.66 143.524 105.59 143.312 105.537C142.817 105.374 142.325 105.201 141.836 105.019L141.168 104.766C140.633 104.577 140.104 104.341 139.581 104.114C139.437 104.051 139.293 103.995 139.152 103.929C138.494 103.641 137.845 103.334 137.205 103.008C136.876 102.844 136.553 102.672 136.229 102.501L135.666 102.207C135.25 101.978 134.839 101.742 134.432 101.498L134.137 101.309C133.634 101.008 133.136 100.698 132.644 100.379C132.492 100.28 132.345 100.19 132.194 100.073L131.226 99.4205C130.542 98.9365 129.871 98.4361 129.211 97.9196L128.757 97.5567C121.739 91.9126 116.174 84.2007 113.53 75.4548C110.757 66.3819 111.356 56.2032 116.176 47.9412L110.237 56.4244ZM136.303 47.2229C132.046 53.6042 131.629 61.5279 134.602 68.5745C137.717 76.054 144.1 81.923 151.549 84.7035C151.856 84.8206 152.164 84.9246 152.494 85.0305L152.903 85.1628C153.341 85.3026 153.778 85.4652 154.23 85.5521C174.818 89.6028 180.401 74.7932 181.887 72.6138C176.995 79.7871 168.775 81.509 158.689 79.0159C157.895 78.8174 157.016 78.5244 156.231 78.2485C155.244 77.8913 154.277 77.4819 153.334 77.0217C151.539 76.1415 149.837 75.0834 148.253 73.8632C139.208 66.8884 133.6 53.5853 139.49 42.7507" fill="white"/>
<path d="M90.8364 182.681L89.4415 187.626L90.8364 182.683V182.681ZM98.0116 193.414L96.4749 193.404L98.0116 193.414ZM97.6336 200.797L88.4246 200.831L97.6336 200.797ZM99.5615 193.425L98.0229 193.416L99.5615 193.425ZM98.4615 200.169L100.068 194.051L98.4615 200.169ZM132.353 171.992L129.366 186.042L132.353 171.992ZM124.669 171.992L122.401 182.489L124.669 171.992Z" fill="white"/>
<path d="M131.823 171.359H125.434C125.079 171.359 124.727 171.643 124.652 171.99L120.115 192.985C120.04 193.331 119.688 193.614 119.335 193.614H114.812C110.336 193.614 110.854 190.52 111.787 186.28L111.816 186.152L112.358 183.26L112.592 182.069L114.657 171.99C114.728 171.643 114.496 171.357 114.141 171.357H107.582C107.401 171.363 107.227 171.428 107.086 171.542C106.946 171.656 106.846 171.813 106.803 171.988L103.848 186.002C102.223 193.419 102.654 200.493 111.485 200.714L111.74 200.719H125.599C125.954 200.719 126.304 200.436 126.38 200.088L132.356 171.988C132.432 171.641 132.199 171.357 131.846 171.357L131.823 171.359ZM157.316 193.688C157.672 193.688 157.883 193.971 157.832 194.319L157.212 197.353L157.316 193.688ZM156.592 200.389L157.212 197.353L156.592 200.389ZM155.814 201.027L144.038 201.084L155.814 201.027Z" fill="white"/>
<path d="M140.223 189.783C140.218 189.45 140.596 188.879 140.951 188.879L140.153 188.866C139.775 192.484 140.223 189.783 140.223 189.783ZM144.62 201.082H144.497H144.62ZM157.316 193.688C157.672 193.688 157.883 193.971 157.832 194.319L157.11 197.846L157.316 193.688ZM147.644 201.092H147.618H147.644ZM146.075 201.08H145.985H146.075ZM145.597 201.082H145.446H145.597ZM145.13 201.082H144.998H145.13ZM146.003 201.08H145.616H146.003Z" fill="white"/>
<path d="M147.62 201.092L146.077 201.097L147.62 201.092ZM155.817 201.044L147.642 201.094L155.817 201.044ZM156.573 200.389L157.093 197.848L156.573 200.39V200.389ZM145.429 201.082H145.13H145.467H145.429ZM144.493 201.082H144.04H144.493ZM144.979 201.082H144.601H144.979ZM51.4903 189.858L52.4827 185.458L51.3486 190.486L51.2163 191.117L51.4922 189.855L51.4903 189.858ZM63.3721 171.287H56.3538C56.1724 171.294 55.9981 171.359 55.8563 171.473C55.7145 171.586 55.6126 171.741 55.5656 171.917L54.2349 177.776C54.2125 177.852 54.2088 177.932 54.224 178.01C54.2392 178.087 54.2729 178.16 54.3223 178.222C54.3716 178.284 54.4352 178.333 54.5075 178.365C54.5798 178.397 54.6588 178.411 54.7377 178.406H61.8108C62.1661 178.406 62.5177 178.122 62.5933 177.776L63.8786 171.903C63.9542 171.558 63.7274 171.274 63.3683 171.274L63.3721 171.287ZM61.8448 181.056L59.7656 190.579L61.8448 181.056ZM41.4572 212.612L47.245 212.658C45.5362 212.658 42.7142 212.626 41.4553 212.611L41.4572 212.612Z" fill="white"/>
<path d="M53.4561 181.056L52.4619 185.456L53.4561 181.056ZM61.3382 180.426H54.2632C54.0819 180.433 53.9076 180.498 53.7657 180.612C53.6239 180.725 53.5221 180.88 53.475 181.056L51.4903 189.856L51.2143 191.119L49.3242 200.103C49.2305 200.522 49.117 200.937 48.9839 201.345C48.9839 201.345 47.6608 205.277 45.4417 205.233L43.2396 205.192C43.059 205.197 42.8847 205.259 42.742 205.37C42.5992 205.481 42.4955 205.634 42.4458 205.808L40.9809 211.975C40.9577 212.051 40.9531 212.131 40.9673 212.208C40.9815 212.286 41.0142 212.359 41.0626 212.421C41.1109 212.483 41.1736 212.533 41.2453 212.566C41.3169 212.599 41.3954 212.614 41.4742 212.611L47.2638 212.658C52.8134 212.658 55.7376 209.582 57.6145 200.736L61.8674 181.078C61.943 180.733 61.7124 180.449 61.3571 180.449L61.3382 180.426ZM161.824 200.723C161.469 200.723 161.257 200.44 161.314 200.092L166.635 175.168L161.824 200.723ZM169.219 200.09L171.374 189.452L169.219 200.09Z" fill="white"/>
<path d="M161.391 200.408C161.348 200.234 161.373 199.808 161.448 199.462L163.973 187.63L161.312 200.092C161.236 200.44 161.467 200.723 161.822 200.723H162.469C162.114 200.723 161.433 200.581 161.391 200.408ZM168.801 200.581C168.608 200.657 168.158 200.723 167.803 200.723H168.449C168.63 200.716 168.803 200.65 168.943 200.536C169.083 200.422 169.181 200.265 169.224 200.09L169.353 199.459C169.283 199.806 168.975 200.504 168.786 200.581H168.801ZM170.294 194.771L171.245 190.076L170.294 194.771ZM191.29 176.837L191.583 178.047C191.665 178.393 191.44 178.674 191.086 178.676" fill="white"/>
<path d="M169.347 199.459L170.292 194.771L169.347 199.459ZM191.001 175.574L191.29 176.814L191.001 175.574ZM171.245 190.076L171.506 188.821L172.521 184.067L171.372 189.45L171.245 190.074V190.076ZM166.722 174.758L166.501 175.797L163.975 187.63L166.637 175.168L166.722 174.76V174.758Z" fill="white"/>
<path d="M191.585 178.047L191.292 176.837L190.858 174.947C190.283 172.716 188.597 171.425 184.934 171.425L168.073 171.414C167.892 171.42 167.719 171.485 167.578 171.599C167.438 171.713 167.338 171.87 167.295 172.045L167.034 173.28L166.656 175.145L161.469 199.44C161.393 199.788 161.369 200.196 161.412 200.385C161.456 200.574 162.136 200.701 162.49 200.701H167.82C168.175 200.701 168.623 200.636 168.818 200.559C169.013 200.481 169.298 199.803 169.385 199.436L171.408 189.429L173.572 179.29C173.647 178.944 173.997 178.663 174.351 178.661L191.122 178.653C191.476 178.653 191.701 178.37 191.619 178.024L191.585 178.047ZM213.177 167.097L211.886 167.102H206.518C206.321 167.114 206.13 167.168 205.955 167.26C205.781 167.352 205.629 167.48 205.508 167.635L193.638 185.025C193.438 185.318 193.209 185.275 193.128 184.931L192.254 181.099C192.207 180.924 192.106 180.768 191.964 180.655C191.822 180.542 191.648 180.477 191.466 180.47H183.836C183.48 180.47 183.269 180.748 183.367 181.09L186.769 193.07C186.867 193.41 186.873 193.971 186.788 194.317L185.276 200.115C185.25 200.189 185.243 200.268 185.256 200.346C185.269 200.424 185.301 200.497 185.349 200.559C185.397 200.621 185.46 200.67 185.532 200.702C185.604 200.734 185.683 200.747 185.762 200.74H193.322C193.678 200.74 194.041 200.457 194.128 200.116L195.64 194.319C195.758 193.911 195.944 193.525 196.188 193.178L215.479 167.598C215.693 167.314 215.578 167.084 215.222 167.087L213.2 167.101L213.177 167.097ZM152.547 182.099C152.502 182.477 152.147 182.761 151.791 182.761H142.113C141.779 182.761 141.609 182.534 141.66 182.25L141.667 182.199L141.711 182.035C142.656 179.578 144.518 177.965 148.054 177.965C152.037 177.965 152.814 179.912 152.544 182.099H152.547ZM149.708 170.932C137.29 170.932 134.347 178.47 132.697 186.078C131.045 193.833 131.188 201.086 144.038 201.086H146.075L147.644 201.08L155.821 201.031C156.001 201.023 156.172 200.957 156.311 200.843C156.45 200.729 156.548 200.573 156.59 200.398L157.832 194.327C157.904 193.979 157.672 193.695 157.316 193.695H145.763C141.17 193.695 139.804 192.474 140.306 188.885H158.774C159.076 188.879 159.35 188.696 159.458 188.409C159.477 188.358 159.496 188.303 159.503 188.248C162.244 177.909 161.458 170.94 149.712 170.94L149.708 170.932ZM91.0103 182.058L90.8364 182.676C90.8364 182.678 89.4415 187.62 89.4415 187.62L88.0465 192.561C87.9886 192.736 87.8791 192.888 87.7327 192.999C87.5862 193.109 87.4096 193.173 87.2262 193.181H79.8431C74.2444 193.181 72.8815 188.802 74.2444 182.343C75.6053 175.737 78.2799 171.629 83.7898 171.214C91.3203 170.647 92.8249 175.943 91.0103 182.056V182.058ZM96.0723 192.803C96.0723 192.803 99.5502 184.354 100.344 179.472C101.421 172.937 98.1515 163.462 85.5156 163.462C72.9515 163.462 67.4964 172.508 65.4153 182.364C63.3361 192.268 66.0617 200.956 78.5521 200.888L97.6165 200.818C97.7993 200.809 97.9749 200.744 98.1194 200.632C98.2639 200.519 98.3701 200.365 98.4236 200.19L100.03 194.07C100.056 193.996 100.063 193.916 100.051 193.839C100.039 193.761 100.007 193.688 99.9591 193.626C99.9113 193.563 99.8487 193.514 99.7769 193.482C99.7052 193.45 99.6266 193.436 99.5483 193.442L96.473 193.423C96.1705 193.421 96.0004 193.227 96.0345 192.97C96.042 192.922 96.0534 192.875 96.0723 192.826V192.803Z" fill="white"/>
<path d="M158.267 187.15C158.267 187.384 158.078 187.573 157.844 187.573C157.609 187.573 157.42 187.384 157.42 187.15C157.42 186.915 157.609 186.726 157.844 186.726C158.078 186.726 158.267 186.915 158.267 187.15Z" fill="white"/>
<defs>
<linearGradient id="paint0_linear_7_245" x1="0" y1="0" x2="256" y2="256" gradientUnits="userSpaceOnUse">
<stop stop-color="#FF5C00"/>
<stop offset="1" stop-color="#FF0F00"/>
</linearGradient>
</defs>
</svg>

        </g>
         
        <g transform="translate(300, 300)">
          <svg width="256" height="256" viewBox="0 0 256 256" fill="none" xmlns="http://www.w3.org/2000/svg">
<rect width="256" height="256" rx="60" fill="#764ABC"/>
<path d="M166.579 165.599C173.96 164.835 179.559 158.472 179.304 150.837C179.05 143.202 172.687 137.094 165.052 137.094H164.543C156.653 137.348 150.545 143.965 150.799 151.855C151.054 155.673 152.581 158.981 154.871 161.272C146.218 178.324 132.984 190.795 113.132 201.23C99.6432 208.356 85.6452 210.901 71.6472 209.12C60.1944 207.593 51.2866 202.502 45.6874 194.104C37.5431 181.633 36.7796 168.144 43.6513 154.655C48.487 144.983 56.1222 137.857 60.9579 134.294C59.9399 130.986 58.4128 125.386 57.6493 121.314C20.7456 148.038 24.5632 184.178 35.7615 201.23C44.1603 213.955 61.2124 221.845 80.046 221.845C85.1362 221.845 90.2264 221.336 95.3165 220.063C127.894 213.701 152.581 194.358 166.579 165.599V165.599Z" fill="white"/>
<path d="M211.372 134.04C192.03 111.388 163.525 98.9175 130.948 98.9175H126.876C124.585 94.3363 119.749 91.2822 114.405 91.2822H113.896C106.006 91.5367 99.8977 98.154 100.152 106.044C100.407 113.679 106.769 119.787 114.405 119.787H114.914C120.513 119.533 125.349 115.97 127.385 111.134H131.966C151.308 111.134 169.633 116.733 186.176 127.677C198.901 136.076 208.064 147.02 213.154 160.254C217.481 170.943 217.226 181.378 212.645 190.286C205.519 203.775 193.557 211.156 177.777 211.156C167.597 211.156 157.926 208.102 152.835 205.811C150.036 208.356 144.946 212.428 141.383 214.973C152.326 220.063 163.525 222.863 174.214 222.863C198.647 222.863 216.717 209.374 223.589 195.885C230.97 181.124 230.461 155.673 211.372 134.04Z" fill="white"/>
<path d="M82.0822 169.926C82.3367 177.561 88.6994 183.669 96.3347 183.669H96.8437C104.733 183.414 110.842 176.797 110.587 168.907C110.333 161.272 103.97 155.164 96.3347 155.164H95.8256C95.3166 155.164 94.5531 155.164 94.0441 155.419C83.6092 138.112 79.2826 119.278 80.8096 98.9177C81.8277 83.6472 86.9178 70.4127 95.8256 59.4689C103.206 50.0521 117.459 45.4709 127.13 45.2164C154.108 44.7074 165.561 78.3025 166.324 91.7915C169.633 92.555 175.232 94.3365 179.05 95.6091C175.996 54.3787 150.545 33 126.112 33C103.206 33 82.0822 49.543 73.6834 73.9759C61.976 106.553 69.6113 137.857 83.8637 162.545C82.5912 164.326 81.8277 167.126 82.0822 169.926V169.926Z" fill="white"/>
</svg>

        </g>
         
        <g transform="translate(600, 300)">
          <svg xmlns="http://www.w3.org/2000/svg" width="256" height="256" fill="none" viewBox="0 0 256 256"><rect width="256" height="256" fill="#F03C2E" rx="60"/><g clip-path="url(#clip0_7_283)"><path fill="#fff" d="M224.225 119.094L136.906 31.775C135.711 30.5787 134.291 29.6298 132.729 28.9824C131.166 28.3349 129.491 28.0017 127.8 28.0017C126.109 28.0017 124.434 28.3349 122.871 28.9824C121.309 29.6298 119.889 30.5787 118.694 31.775L100.569 49.9L123.569 72.9C128.919 71.025 135.044 72.3062 139.306 76.5687C141.335 78.6014 142.752 81.1638 143.394 83.9632C144.036 86.7626 143.878 89.6862 142.937 92.4L165.106 114.569C170.469 112.719 176.656 113.912 180.937 118.206C182.361 119.63 183.49 121.32 184.26 123.18C185.03 125.04 185.426 127.033 185.426 129.046C185.425 131.059 185.029 133.052 184.258 134.912C183.487 136.771 182.358 138.461 180.934 139.884C179.511 141.308 177.821 142.436 175.961 143.206C174.101 143.977 172.108 144.373 170.095 144.372C168.082 144.372 166.088 143.975 164.229 143.205C162.369 142.434 160.679 141.305 159.256 139.881C154.756 135.381 153.644 128.756 155.919 123.212L135.244 102.537V156.944C136.745 157.686 138.116 158.666 139.306 159.844C140.729 161.267 141.858 162.956 142.629 164.816C143.399 166.675 143.795 168.668 143.795 170.681C143.795 172.694 143.399 174.687 142.629 176.546C141.858 178.406 140.729 180.096 139.306 181.519C137.883 182.942 136.193 184.071 134.334 184.841C132.474 185.611 130.481 186.008 128.469 186.008C126.456 186.008 124.463 185.611 122.604 184.841C120.744 184.071 119.054 182.942 117.631 181.519C116.206 180.096 115.076 178.407 114.305 176.548C113.533 174.688 113.136 172.694 113.136 170.681C113.136 168.668 113.533 166.675 114.305 164.815C115.076 162.955 116.206 161.266 117.631 159.844C119.112 158.369 120.756 157.25 122.65 156.5V101.587C120.825 100.837 119.112 99.7312 117.631 98.2437C115.479 96.0943 114.016 93.3526 113.428 90.3684C112.841 87.3841 113.155 84.2924 114.331 81.4875L91.6437 58.8125L31.7687 118.625C30.5716 119.821 29.6219 121.241 28.9739 122.804C28.3259 124.367 27.9924 126.042 27.9924 127.734C27.9924 129.426 28.3259 131.102 28.9739 132.665C29.6219 134.228 30.5716 135.648 31.7687 136.844L119.094 224.156C120.289 225.352 121.709 226.301 123.271 226.949C124.834 227.596 126.509 227.929 128.2 227.929C129.891 227.929 131.566 227.596 133.129 226.949C134.691 226.301 136.111 225.352 137.306 224.156L224.225 137.375C225.422 136.179 226.372 134.759 227.02 133.196C227.668 131.633 228.001 129.958 228.001 128.266C228.001 126.574 227.668 124.898 227.02 123.335C226.372 121.772 225.422 120.352 224.225 119.156"/></g><defs><clipPath id="clip0_7_283"><rect width="200" height="200" fill="#fff" transform="translate(28 28)"/></clipPath></defs></svg>
        </g>
         
        <g transform="translate(900, 300)">
          <svg width="256" height="256" viewBox="0 0 256 256" fill="none" xmlns="http://www.w3.org/2000/svg">
<rect width="256" height="256" rx="60" fill="#242938"/>
<path d="M128.001 30C72.7791 30 28 74.7708 28 130.001C28 174.184 56.6533 211.668 96.3867 224.891C101.384 225.817 103.219 222.722 103.219 220.081C103.219 217.696 103.126 209.819 103.083 201.463C75.2631 207.512 69.3927 189.664 69.3927 189.664C64.8437 178.105 58.2894 175.032 58.2894 175.032C49.2163 168.825 58.9733 168.953 58.9733 168.953C69.0151 169.658 74.3026 179.258 74.3026 179.258C83.2217 194.546 97.6965 190.126 103.403 187.571C104.301 181.107 106.892 176.696 109.752 174.199C87.5405 171.67 64.1913 163.095 64.1913 124.778C64.1913 113.86 68.0977 104.939 74.4947 97.9362C73.4564 95.4175 70.0335 85.2465 75.4635 71.4722C75.4635 71.4722 83.8609 68.7845 102.971 81.7226C110.948 79.5069 119.502 78.3958 128.001 78.3577C136.499 78.3958 145.061 79.5069 153.052 81.7226C172.139 68.7845 180.525 71.4722 180.525 71.4722C185.968 85.2465 182.544 95.4175 181.505 97.9362C187.917 104.939 191.797 113.86 191.797 124.778C191.797 163.187 168.403 171.644 146.135 174.119C149.722 177.223 152.918 183.308 152.918 192.638C152.918 206.018 152.802 216.787 152.802 220.081C152.802 222.742 154.602 225.86 159.671 224.878C199.383 211.64 228 174.169 228 130.001C228 74.7708 183.227 30 128.001 30ZM65.4536 172.453C65.2333 172.95 64.4517 173.099 63.7396 172.758C63.0143 172.432 62.6069 171.754 62.8421 171.256C63.0574 170.744 63.8406 170.602 64.5643 170.945C65.2913 171.271 65.7053 171.955 65.4536 172.453ZM70.3725 176.842C69.8956 177.285 68.9633 177.079 68.3307 176.38C67.6766 175.683 67.554 174.751 68.0376 174.302C68.5294 173.86 69.4336 174.067 70.0893 174.764C70.7434 175.47 70.8709 176.395 70.3725 176.842ZM73.7471 182.458C73.1344 182.884 72.1325 182.485 71.5132 181.595C70.9004 180.706 70.9004 179.64 71.5264 179.212C72.1474 178.785 73.1344 179.169 73.762 180.052C74.373 180.956 74.373 182.023 73.7471 182.458ZM79.4542 188.962C78.9061 189.566 77.7386 189.404 76.8841 188.579C76.0098 187.773 75.7663 186.629 76.3161 186.024C76.8709 185.418 78.045 185.589 78.9061 186.407C79.7738 187.211 80.0387 188.364 79.4542 188.962ZM86.8301 191.157C86.5883 191.941 85.4639 192.297 84.3312 191.964C83.2002 191.621 82.46 190.704 82.6885 189.912C82.9237 189.124 84.053 188.753 85.194 189.109C86.3234 189.45 87.0652 190.361 86.8301 191.157ZM95.2242 192.089C95.2523 192.913 94.2919 193.597 93.1029 193.612C91.9073 193.639 90.9402 192.971 90.9269 192.16C90.9269 191.327 91.8659 190.65 93.0615 190.63C94.2505 190.607 95.2242 191.269 95.2242 192.089ZM103.47 191.773C103.613 192.577 102.787 193.404 101.606 193.624C100.445 193.836 99.3702 193.339 99.2229 192.541C99.0788 191.716 99.92 190.89 101.079 190.676C102.262 190.471 103.32 190.955 103.47 191.773Z" fill="white"/>
</svg>

        </g>
         
        <g transform="translate(1200, 300)">
          <svg xmlns="http://www.w3.org/2000/svg" width="256" height="256" fill="none" viewBox="0 0 256 256"><rect width="256" height="256" fill="#242938" rx="60"/><path fill="#2489CA" d="M33.7158 100.208C33.7158 100.208 28.9814 96.795 34.6627 92.2381L47.8994 80.402C47.8994 80.402 51.6869 76.4172 55.6915 79.8891L177.84 172.368V216.714C177.84 216.714 177.781 223.678 168.844 222.908L33.7158 100.208Z"/><path fill="#1070B3" d="M65.1997 128.792L33.7157 157.415C33.7157 157.415 30.4805 159.822 33.7157 164.123L48.3333 177.418C48.3333 177.418 51.8052 181.147 56.9341 176.905L90.3119 151.596L65.1997 128.792Z"/><path fill="#0877B9" d="M120.474 129.029L178.215 84.9391L177.84 40.83C177.84 40.83 175.374 31.2033 167.148 36.2139L90.312 106.145L120.474 129.029Z"/><path fill="#3C99D4" d="M168.844 222.968C172.198 226.4 176.262 225.276 176.262 225.276L221.259 203.103C227.019 199.177 226.21 194.305 226.21 194.305V61.8982C226.21 56.0788 220.252 54.0667 220.252 54.0667L181.253 35.267C172.731 30 167.148 36.2139 167.148 36.2139C167.148 36.2139 174.328 31.0455 177.84 40.83V215.905C177.84 217.109 177.583 218.292 177.071 219.358C176.045 221.429 173.816 223.362 168.47 222.553L168.844 222.968Z"/></svg>
        </g>
         
        <g transform="translate(1500, 300)">
          <svg width="256" height="256" viewBox="0 0 256 256" fill="none" xmlns="http://www.w3.org/2000/svg">
<rect width="256" height="256" rx="60" fill="#242938"/>
<path fill-rule="evenodd" clip-rule="evenodd" d="M36.4065 203.248C35.1443 203.286 33.8902 203.033 32.7411 202.51C31.5921 201.986 30.5788 201.205 29.7794 200.227C28.9801 199.169 28.4302 197.943 28.1705 196.643C27.9108 195.342 27.9482 193.999 28.2797 192.715L58.2516 61.7869C58.9172 59.073 60.4491 56.6499 62.6152 54.8845C64.7813 53.1191 67.4636 52.1077 70.2561 52.0034H219.594C220.856 51.9671 222.11 52.2206 223.258 52.7442C224.407 53.2679 225.421 54.0478 226.221 55.0242C227.02 56.083 227.57 57.3084 227.829 58.6091C228.089 59.9098 228.052 61.2524 227.721 62.5368L197.728 193.472C197.062 196.186 195.53 198.609 193.364 200.374C191.198 202.14 188.516 203.151 185.723 203.255H36.4065V203.248Z" fill="url(#paint0_linear_258_44)"/>
<path fill-rule="evenodd" clip-rule="evenodd" d="M70.2557 53.6861H219.594C220.64 53.6433 221.681 53.853 222.628 54.2974C223.576 54.7418 224.403 55.4078 225.039 56.2393C225.675 57.0707 226.101 58.043 226.282 59.0741C226.463 60.1051 226.393 61.1645 226.078 62.1628L196.085 193.091C195.494 195.427 194.168 197.512 192.302 199.039C190.437 200.565 188.13 201.451 185.723 201.567H36.4062C35.3602 201.61 34.3194 201.401 33.3716 200.956C32.4239 200.512 31.597 199.846 30.961 199.014C30.325 198.183 29.8986 197.21 29.7177 196.179C29.5368 195.148 29.6069 194.089 29.9219 193.091L59.9152 62.1628C60.504 59.8289 61.8265 57.7457 63.688 56.2197C65.5495 54.6938 67.8517 53.8057 70.2557 53.6861V53.6861Z" fill="url(#paint1_linear_258_44)"/>
<path fill-rule="evenodd" clip-rule="evenodd" d="M128.286 167.219H164.606C166.663 167.306 168.607 168.185 170.032 169.671C171.457 171.158 172.253 173.137 172.253 175.196C172.253 177.255 171.457 179.234 170.032 180.721C168.607 182.207 166.663 183.086 164.606 183.173H128.286C126.229 183.086 124.285 182.207 122.86 180.721C121.435 179.234 120.639 177.255 120.639 175.196C120.639 173.137 121.435 171.158 122.86 169.671C124.285 168.185 126.229 167.306 128.286 167.219V167.219Z" fill="#2C5591"/>
<path fill-rule="evenodd" clip-rule="evenodd" d="M151.846 131.756C150.806 133.505 149.358 134.975 147.625 136.041L80.2186 184.423C78.3415 185.644 76.0674 186.098 73.8654 185.691C71.6634 185.284 69.7015 184.048 68.3843 182.237C67.0671 180.426 66.4952 178.179 66.7864 175.959C67.0777 173.739 68.2099 171.715 69.9495 170.305L130.736 126.286V125.386L92.5445 84.7812C91.1206 83.0683 90.4045 80.8765 90.5422 78.6533C90.6799 76.4302 91.6611 74.3435 93.2855 72.8194C94.9098 71.2953 97.0547 70.4489 99.2821 70.4529C101.51 70.4569 103.651 71.3111 105.27 72.841L151.103 121.594C152.334 122.967 153.076 124.709 153.21 126.549C153.344 128.388 152.864 130.219 151.846 131.756Z" fill="#2C5591"/>
<path fill-rule="evenodd" clip-rule="evenodd" d="M150.138 130.071C149.103 131.821 147.657 133.291 145.925 134.356L78.54 182.745C76.6623 183.94 74.3996 184.375 72.2127 183.96C70.0258 183.546 68.0791 182.313 66.7692 180.513C65.4593 178.714 64.8847 176.482 65.1624 174.274C65.44 172.065 66.5491 170.046 68.2637 168.626L129.057 124.608V123.701L90.8658 83.0741C89.4286 81.3622 88.7018 79.1648 88.8348 76.9335C88.9679 74.7023 89.9507 72.6067 91.5811 71.0778C93.2116 69.5488 95.3659 68.7025 97.6011 68.713C99.8363 68.7234 101.983 69.5898 103.599 71.134L149.424 119.887C150.661 121.262 151.403 123.011 151.532 124.856C151.662 126.701 151.171 128.537 150.138 130.071V130.071Z" fill="white"/>
<path fill-rule="evenodd" clip-rule="evenodd" d="M127.287 166.278H163.607C165.613 166.278 167.536 167.075 168.955 168.493C170.373 169.911 171.17 171.835 171.17 173.84C171.17 175.846 170.373 177.77 168.955 179.188C167.536 180.606 165.613 181.403 163.607 181.403H127.287C125.281 181.403 123.357 180.606 121.939 179.188C120.521 177.77 119.724 175.846 119.724 173.84C119.724 171.835 120.521 169.911 121.939 168.493C123.357 167.075 125.281 166.278 127.287 166.278V166.278Z" fill="white"/>
<defs>
<linearGradient id="paint0_linear_258_44" x1="180.31" y1="174.355" x2="65.5857" y2="71.8775" gradientUnits="userSpaceOnUse">
<stop stop-color="#5391FE"/>
<stop offset="1" stop-color="#3E6DBF"/>
</linearGradient>
<linearGradient id="paint1_linear_258_44" x1="64.4427" y1="70.5109" x2="177.996" y2="172.56" gradientUnits="userSpaceOnUse">
<stop stop-color="#5391FE"/>
<stop offset="1" stop-color="#3E6DBF"/>
</linearGradient>
</defs>
</svg>

        </g>
         
        <g transform="translate(1800, 300)">
          <svg width="256" height="256" viewBox="0 0 256 256" fill="none" xmlns="http://www.w3.org/2000/svg">
<g clip-path="url(#clip0_33_480)">
<path d="M196 0H60C26.8629 0 0 26.8629 0 60V196C0 229.137 26.8629 256 60 256H196C229.137 256 256 229.137 256 196V60C256 26.8629 229.137 0 196 0Z" fill="#242938"/>
<path d="M40 65.6631L110.968 55.9983L111 124.453L40.0656 124.857L40 65.6631ZM110.935 132.34L110.99 200.855L40.0557 191.102L40.0517 131.881L110.935 132.34ZM119.537 54.7335L213.636 41V123.582L119.537 124.33V54.7335ZM213.658 132.984L213.636 215.195L119.537 201.914L119.406 132.831L213.658 132.984Z" fill="#00ADEF"/>
</g>
<defs>
<clipPath id="clip0_33_480">
<rect width="256" height="256" fill="white"/>
</clipPath>
</defs>
</svg>

        </g>
        
  </svg>
  